<?xml version="1.0" encoding="utf-8"?>
<!-- Generator: Adobe Illustrator 22.1.0, SVG Export Plug-In . SVG Version: 6.00 Build 0)  -->
<svg version="1.1" id="Layer_1" xmlns="http://www.w3.org/2000/svg" xmlns:xlink="http://www.w3.org/1999/xlink" x="0px" y="0px"
	 viewBox="0 0 268 86" style="enable-background:new 0 0 268 86;" xml:space="preserve">
<style type="text/css">
	.st0{fill:#FFFFFF;}
	.st1{fill:#010101;}
	.st2{fill:#CB2026;}
</style>
<g id="logo_1_">
	<g id="white_2_">
		<path class="st0" d="M79.1,66.3c-1.7-0.4-3.4-0.6-5.2-0.6c-3,0-5.8,0.5-7.8,1.4c-0.2,0.1-0.4,0.3-0.4,0.6c0,0.1,0,0.2,0.1,0.3
			c0.2,0.7-0.2,1.5-2.1,1.9c-2.9,0.6-4.8,3.7-5.8,4.7c-1.2,1.2-4.7,1.9-4.2,1.2c0.4-0.5,2-2.3,3-4.1c0.9-1.7,1.6-2.1,2.7-3.7
			c0.3-0.5,1.5-2.1,1.9-3.4c0.4-1.3,0.3-2.8,0.4-3.5c0.2-0.9,1.1-3,1.2-4.1c0-0.6-2.7,0.9-4,0.9s-2.6-0.8-3.7-0.8
			c-1.4-0.1-2.4,1.1-3.7,0.9c-0.7-0.1-1.4-0.8-2.7-0.8c-1.9-0.1-4.1,1-8.4,0.9c-4.2-0.1-8.1-5.3-8.6-6.1c-0.6-1-1.4-1-2.2-0.2
			c-0.8,0.8-1.8,0.2-2.1-0.3c-0.5-1-2-3.8-4.3-4.4c-3.1-0.8-4.7,1.7-4.5,3.8s1.5,2.6,2.2,3.7c0.6,1.1,0.9,1.8,2.1,2.3
			c0.8,0.3,1.1,0.9,0.9,1.5s-1.1,0.7-1.6,0.8c-1.2,0.1-2-0.3-2.6-0.7c-0.7-0.5-1.3-1.1-1.9-2.2c-0.7-1.2-1.9-1.7-3.2-1.7
			c-0.6,0-1.2,0.2-1.7,0.4c-2.1,1.1-4.5,1.7-7.2,1.7h-3C8,73.7,24,86,43,86C58.1,86,71.4,78.1,79.1,66.3z"/>
	</g>
	<g id="black_2_">
		<g>
			<path class="st0" d="M85.5,64h0.4l0.6,1h0.4l-0.6-1c0.3,0,0.6-0.2,0.6-0.6c0-0.4-0.3-0.6-0.8-0.6h-0.8V65h0.3L85.5,64L85.5,64z
				 M85.5,63.8v-0.7H86c0.2,0,0.5,0.1,0.5,0.3c0,0.3-0.3,0.4-0.5,0.4H85.5z"/>
			<path class="st0" d="M88.1,63.9c0,1.2-1,2.2-2.2,2.2s-2.2-1-2.2-2.2s1-2.2,2.2-2.2C87.1,61.7,88.1,62.7,88.1,63.9z M85.9,62.1
				c-1,0-1.8,0.8-1.8,1.8c0,1,0.8,1.8,1.8,1.8s1.8-0.8,1.8-1.8C87.7,62.9,86.9,62.1,85.9,62.1z"/>
		</g>
		<g>
			<path class="st1" d="M79.1,66.3c-1.7-0.4-3.4-0.6-5.2-0.6c-3,0-5.8,0.5-7.8,1.4c-0.2,0.1-0.4,0.3-0.4,0.6c0,0.1,0,0.2,0.1,0.3
				c0.2,0.7-0.2,1.5-2.1,1.9c-2.9,0.6-4.8,3.7-5.8,4.7c-1.2,1.2-4.7,1.9-4.2,1.2c0.4-0.5,2-2.3,3-4.1c0.9-1.7,1.6-2.1,2.7-3.7
				c0.3-0.5,1.5-2.1,1.9-3.4c0.4-1.3,0.3-2.8,0.4-3.5c0.2-0.9,1.1-3,1.2-4.1c0-0.6-2.7,0.9-4,0.9s-2.6-0.8-3.7-0.8
				c-1.4-0.1-2.4,1.1-3.7,0.9c-0.7-0.1-1.4-0.8-2.7-0.8c-1.9-0.1-4.1,1-8.4,0.9c-4.2-0.1-8.1-5.3-8.6-6.1c-0.6-1-1.4-1-2.2-0.2
				c-0.8,0.8-1.8,0.2-2.1-0.3c-0.5-1-2-3.8-4.3-4.4c-3.1-0.8-4.7,1.7-4.5,3.8s1.5,2.6,2.2,3.7c0.6,1.1,0.9,1.8,2.1,2.3
				c0.8,0.3,1.1,0.9,0.9,1.5s-1.1,0.7-1.6,0.8c-1.2,0.1-2-0.3-2.6-0.7c-0.7-0.5-1.3-1.1-1.9-2.2c-0.7-1.2-1.9-1.7-3.2-1.7
				c-0.6,0-1.2,0.2-1.7,0.4c-2.1,1.1-4.5,1.7-7.2,1.7h-3C0.8,52.4,0,47.8,0,43C0,19.2,19.2,0,43,0c23.7,0,43,19.2,43,43
				C86,51.6,83.4,59.6,79.1,66.3z"/>
		</g>
		<path d="M107.9,45.7c0-3.9-0.1-6.8-0.2-9.5h6.4l0.3,5.6h0.2c1.4-4.1,4.9-6.3,8.1-6.3c0.7,0,1.2,0,1.7,0.2v7
			c-0.7-0.1-1.3-0.2-2.2-0.2c-3.5,0-6,2.3-6.7,5.6c-0.1,0.7-0.2,1.4-0.2,2.2v15.3h-7.5L107.9,45.7z"/>
		<path d="M133.4,53c0.2,5.3,4.3,7.7,9.1,7.7c3.4,0,5.9-0.5,8.1-1.4l1.1,5.1c-2.5,1.1-6,1.9-10.3,1.9c-9.6,0-15.2-5.9-15.2-14.9
			c0-8.1,4.9-15.8,14.4-15.8c9.6,0,12.7,7.9,12.7,14.3c0,1.4-0.1,2.5-0.3,3.2L133.4,53z M146.3,47.8c0-2.7-1.2-7.2-6.1-7.2
			c-4.6,0-6.5,4.2-6.8,7.2H146.3z"/>
		<path d="M178,52.9c0,0.8-0.1,1.5-0.2,2.2c-0.7,3.2-3.4,5.3-6.4,5.3c-4.7,0-7.4-4-7.4-9.4c0-5.5,2.7-9.7,7.5-9.7
			c3.3,0,5.7,2.4,6.4,5.2c0.1,0.6,0.2,1.3,0.2,1.9v4.5H178z M185.4,24.9l-7.4-2.1v16.6h-0.1c-1.3-2.2-4.2-3.8-8.3-3.8
			c-7.1,0-13.2,5.9-13.2,15.7c0,9.1,5.6,15,12.6,15c4.2,0,7.8-2,9.6-5.3h0.1l0.3,4.7h6.6c-0.1-2-0.2-5.2-0.2-8.3L185.4,24.9
			L185.4,24.9z"/>
		<path d="M205.1,35.5c-2.2,0-4.3,0.6-5.9,1.7c-1.8,1-3.2,2.6-4,4.3H195V27.7l-2.9-0.9v38.8h2.9v-18c0-1.2,0.1-2,0.4-2.9
			c1.3-3.7,4.7-6.7,8.9-6.7c6,0,8.1,4.8,8.1,10.1v17.5h2.9V47.9C215.3,36.9,207.9,35.5,205.1,35.5z"/>
		<path d="M241.5,58.7c0,2.3,0.1,4.7,0.4,7h-2.7l-0.4-4.2h-0.1c-1.4,2.3-4.7,4.9-9.4,4.9c-5.9,0-8.7-4.2-8.7-8.1
			c0-6.8,6-10.9,18-10.8v-0.8c0-2.9-0.6-8.7-7.5-8.7c-2.6,0-5.3,0.7-7.4,2.2l-0.9-2.1c2.7-1.8,6-2.5,8.6-2.5
			c8.5,0,10.1,6.4,10.1,11.6L241.5,58.7L241.5,58.7z M238.6,49.9c-6.4-0.2-14.9,0.8-14.9,7.9c0,4.2,2.8,6.1,5.9,6.1
			c4.9,0,7.7-3,8.7-5.9c0.2-0.6,0.3-1.3,0.3-1.8V49.9z"/>
		<path d="M253.1,29.7v6.5h8.4v2.4h-8.4v19.2c0,3.7,1.2,6.1,4.3,6.1c1.5,0,2.6-0.2,3.3-0.5l0.4,2.3c-1,0.4-2.3,0.7-4.1,0.7
			c-2.2,0-3.9-0.7-5.1-2.1c-1.3-1.5-1.8-4-1.8-7V38.6h-5v-2.4h5v-5.4L253.1,29.7z"/>
		<g>
			<path d="M265.2,64.1h0.4l0.6,1h0.4l-0.6-1c0.3,0,0.6-0.2,0.6-0.6c0-0.4-0.3-0.6-0.8-0.6H265v2.2h0.3v-1H265.2z M265.2,63.8v-0.7
				h0.5c0.2,0,0.5,0.1,0.5,0.3c0,0.3-0.3,0.4-0.5,0.4H265.2z"/>
			<path d="M267.7,64c0,1.2-1,2.2-2.2,2.2s-2.2-1-2.2-2.2s1-2.2,2.2-2.2C266.8,61.8,267.7,62.8,267.7,64z M265.6,62.2
				c-1,0-1.8,0.8-1.8,1.8s0.8,1.8,1.8,1.8s1.8-0.8,1.8-1.8S266.6,62.2,265.6,62.2z"/>
		</g>
		<path class="st1" d="M52.4,62.4c0.2,0.2,0.6,0.9,0.1,1.9c-0.3,0.5-0.5,0.8-1,1.2c-0.6,0.5-1.8,1-3.4,0c-0.9-0.6-0.9-0.7-2.1-0.6
			c-0.9,0.1-1.2-0.8-0.9-1.5c0.3-0.7,1.6-1.3,3.2-0.4c0.7,0.4,1.8,1.3,2.8,0.5c0.4-0.3,0.6-0.5,1.2-1.2
			C52.3,62.4,52.3,62.4,52.4,62.4L52.4,62.4z"/>
	</g>
	<path id="red_2_" class="st2" d="M39.6,20.5c-5,0.4-5.5,0.9-6.4,1.9c-1.3,1.4-3-1.8-3-1.8c-1-0.2-2.3-1.9-1.6-3.5
		c0.7-1.5,1.9-1.1,2.3-0.6c0.5,0.6,1.5,1.5,2.8,1.5c1.3,0,2.8-0.3,4.9-0.3c2.1,0,3.6,0.8,3.6,1.5C42.2,19.7,42,20.3,39.6,20.5z
		 M44.9,12.3C44.8,12.3,44.8,12.3,44.9,12.3c-0.1,0-0.2-0.1-0.2-0.1c0-0.1,0-0.1,0.1-0.1c1-0.5,2.4-0.9,4-1.1c0.5-0.1,1-0.1,1.4-0.1
		c0.1,0,0.2,0,0.2,0c2.8,0.1,5,1.2,4.9,2.4c0,1.3-2.3,2.3-5,2.2c-0.9,0-1.7-0.2-2.4-0.4c-0.1,0-0.1-0.1-0.1-0.2
		c0-0.1,0.1-0.2,0.1-0.2c1.7-0.4,2.9-1,2.8-1.7c-0.1-0.8-2.4-1.3-5-1C45.4,12.2,45.1,12.2,44.9,12.3z M67.2,31.5
		c-0.4,1.4-1,3.3-3.7,4.6c-0.4,0.2-0.5-0.1-0.4-0.4c1-1.7,1.2-2.2,1.5-2.8c0.4-1,0.6-2.4-0.2-5.4c-1.6-5.8-5-13.6-7.4-16.1
		C54.7,9,50.4,8.3,46.5,9.3c-1.4,0.4-4.2,1.8-9.4,0.7c-9-2-10.3,2.5-10.8,4.4c-0.5,2-1.7,7.5-1.7,7.5c-0.4,2.3-1,6.2,13,8.8
		c6.5,1.2,6.8,2.9,7.1,4.1c0.5,2.2,1.3,3.4,2.3,4c0.9,0.6,0,1.1-1,1.2c-2.8,0.3-13-2.6-19-6.1c-4.9-3-5-5.7-3.9-8
		C15.6,25.1,10,26.6,9,30.1c-1.7,6.1,13.3,16.4,30.5,21.6c18,5.4,36.5,1.6,38.6-9.7C78.9,37,74.5,33.2,67.2,31.5z"/>
</g>
</svg>
