<?xml version="1.0" encoding="utf-8"?>
<!-- Generator: Adobe Illustrator 22.1.0, SVG Export Plug-In . SVG Version: 6.00 Build 0)  -->
<svg version="1.1" id="Layer_1" xmlns="http://www.w3.org/2000/svg" xmlns:xlink="http://www.w3.org/1999/xlink" x="0px" y="0px"
	 viewBox="0 0 218 51" style="enable-background:new 0 0 218 51;" xml:space="preserve">
<style type="text/css">
	.st0{fill:#774E9E;}
</style>
<g>
	<path class="st0" d="M58.6,25.2l-1.2,0.3L55.2,2.2L17,6.7l4.7,38.2l4.5-0.7c-0.3-0.5-0.9-1.1-1.9-2c-1.3-1.1-0.9-3-0.1-4.2
		c1-2,6.3-4.5,6-7.7c-0.1-1.2-0.3-2.6-1.4-3.7c0,0.4,0,0.9,0,0.9s-0.4-0.6-0.7-1.4c-0.3-0.3-0.4-0.4-0.6-0.8c-0.2,0.4-0.2,1-0.2,1
		S27.1,25.6,27,25c-0.3,0.3-0.3,0.9-0.3,0.9s-0.4-1.4-0.3-2c-0.3-0.6-0.9-1.9-0.7-4.7c1.2,0.9,3.7,0.6,4.8-0.9
		c0.3-0.5,0.6-1.8-0.2-4.4c-0.4-1.7-1.6-4.2-2-5.1h-0.1c0.3,0.8,0.8,2.4,0.9,3.2c0.6,2.4,0.7,3.2,0.4,4.3c-0.3,0.9-0.8,1.5-2.1,2.3
		c-1.4,0.7-3.2-1-3.3-1.1c-1.4-1.1-2.4-2.8-2.5-3.7s0.5-1.4,0.9-2.2c-0.5,0.2-1,0.3-1,0.3s0.7-0.7,1.4-1.3c0.3-0.3,0.5-0.3,0.9-0.6
		c-0.5,0-0.9,0-0.9,0s0.9-0.4,1.7-0.8c-0.6,0-1.2,0-1.2,0s1.8-0.9,3.2-1.4c1-0.4,2-0.3,2.5,0.5c0.6,1,1.4,1.6,3,2
		c0.9-0.4,1.3-0.7,2.5-1c1.1-1.1,2-1.3,2-1.3s-0.4,0.4-0.5,1c0.6-0.5,1.3-0.9,1.3-0.9S37.1,8.4,36.8,9h0.1c0.7-0.5,1.5-0.9,1.5-0.9
		s-0.3,0.3-0.5,0.7c0.5,0,1.6,0,2,0.1c2.5,0.1,3-2.6,4-3c1.2-0.4,1.7-0.7,3.7,1.4c1.8,1.7,3.2,4.8,2.5,5.5c-0.6,0.6-1.7-0.3-3-1.8
		c-0.6-0.8-1.1-1.7-1.2-3C45.7,7,45,6.4,45,6.4s0.4,1,0.4,1.9c0,0.5,0.1,2.3,0.9,3.2c-0.1,0.2-0.1,0.7-0.2,0.9
		c-0.9-1.1-2.8-1.9-3.2-2c1,0.9,3.5,2.8,4.4,4.8c0.9,1.8,0.3,3.5,0.8,3.9c0.1,0.1,1.9,2.3,2.2,3.4c0.6,2,0,3.9-0.8,5.2l-2.2,0.2
		c-0.3-0.1-0.5-0.2-0.9-0.3c0.2-0.3,0.5-0.9,0.5-1.1l-0.1-0.3c-0.7,0.9-1.8,1.9-2.7,2.4c-1.2,0.7-2.6,0.6-3.6,0.3
		c-2.6-0.8-5.1-2.6-5.7-3.1c0,0,0,0.3,0.1,0.4c0.7,0.8,2.2,2.1,3.7,3.1l-3.2,0.3l1.4,11.5c-0.7,0.1-0.8,0.2-1.4,0.3
		c-0.6-2.2-1.9-3.7-3.2-4.5c-1.2-0.8-2.7-0.9-4.3-0.6l0.1,0.1c1.1-0.1,2.3,0.1,3.7,0.9c1.3,0.8,2.3,2.9,2.6,4.1
		c0.5,1.6,0.9,3.3-0.5,5.1c-0.9,1.3-3.7,2-5.8,0.4c0.6,0.9,1.4,1.7,2.4,1.9c1.5,0.2,3.1-0.1,4.1-1.1c0.9-0.9,1.4-2.8,1.2-4.8
		l1.4-0.2l0.5,3.6l23-2.7L58.6,25.2z M36.7,30.5l2.9-0.4c0.4,0.2,0.8,0.3,1.4,0.4c0.9,0.3,1.9,0.4,3.4-0.3c0.3-0.2,1.1-0.9,1.4-1.2
		l11.8-2.1l1.2,14.6l-20.3,3.7L36.7,30.5z M53.4,35.4l-3.9-2.6l-3.2,5.4l-3.7-1.1l-3.3,5l0.2,1.6l18.1-3.3l-1-11.2L53.4,35.4z
		 M35.6,16.7c-1.1,0.8-1.1,2.3-0.1,3.2c0.1,0.1,0.2,0.2,0.3,0.2c0.3-0.2,0.7-0.3,1-0.4c0.7-0.3,1.2-0.3,1.7-0.4
		c0.3-0.3,0.5-0.7,0.4-1.4c-0.1-1-0.9-0.9-0.3-1.4C39,16.1,37.1,15.7,35.6,16.7z M44.4,24.1c1,0.8,1.9,1.3,2.8,1.1
		c0.6-0.1,1-0.9,1.4-1.8c0.3-0.6,0.3-1.2-0.1-1.4c-0.2-0.1-1-0.1-1.6,0c-1.1,0.2-2.3,0.5-2.6,0.8C43.8,23.2,44.1,23.9,44.4,24.1z
		 M44.7,16.3L44.7,16.3C44.7,16.4,44.7,16.4,44.7,16.3c0,0.2,0,0.2,0.1,0.3c0.3,0.6,0.6,1.1,1.1,1.4c0.2,0,0.3,0,0.4-0.1
		c0.5,0,0.8,0.1,0.9,0.2c0-0.1,0-0.3,0-0.4c0-0.7,0.2-1.9-1.2-2.6c-0.5-0.3-1.2-0.2-1.4,0.2h0.1c0.3,0.1,0.1,0.3,0.1,0.4
		C44.7,15.7,44.5,15.8,44.7,16.3z"/>
	<path class="st0" d="M76.9,35.4h-8.6V15.6h8.6c6.2,0,9.3,3.2,9.3,9.4C86.2,31.9,83.1,35.4,76.9,35.4z M72,32.2h4.3
		c4.1,0,6.1-2.4,6.1-7.2c0-4.1-2-6.2-6.1-6.2H72V32.2z"/>
	<polygon class="st0" points="90.1,35.4 86.3,35.4 94.7,15.6 98.7,15.6 107.3,35.4 103.3,35.4 100.8,30 94.5,30 95.8,26.8 
		99.8,26.8 96.6,19.4 	"/>
	<polygon class="st0" points="105.2,15.6 120.2,15.6 120.2,18.8 114.6,18.8 114.6,35.4 110.9,35.4 110.9,18.8 105.2,18.8 	"/>
	<polygon class="st0" points="122.2,35.4 118.3,35.4 126.8,15.6 130.8,15.6 139.4,35.4 135.4,35.4 132.9,30 126.5,30 127.8,26.8 
		131.9,26.8 128.6,19.4 	"/>
	<path class="st0" d="M150.3,35.4h-8.6V15.6h8.6c6.2,0,9.3,3.2,9.3,9.4C159.6,31.9,156.6,35.4,150.3,35.4z M145.4,32.2h4.3
		c4.1,0,6.2-2.4,6.2-7.2c0-4.1-2-6.2-6.2-6.2h-4.3V32.2z"/>
	<path class="st0" d="M162.2,25.6c0-6.7,3.3-10,10-10c6.6,0,9.8,3.3,9.8,10c0,6.6-3.2,10-9.8,10C165.8,35.6,162.4,32.2,162.2,25.6
		 M172.1,32.4c4,0,6-2.3,6-6.9c0-4.5-2-6.8-6-6.8c-4.1,0-6.1,2.3-6.1,6.8C165.9,30.1,168,32.4,172.1,32.4"/>
	<path class="st0" d="M197.3,27.4V32c-0.9,0.3-1.6,0.3-2.3,0.3c-4.5,0-6.7-2.4-6.7-7.2c0-4.4,2.4-6.6,7.2-6.6c2,0,3.8,0.3,5.5,1.1
		v-3.3c-1.7-0.7-3.7-0.9-5.8-0.9c-7.2,0-10.6,3.2-10.6,9.8c0,6.9,3.5,10.3,10.5,10.3c2.4,0,4.4-0.3,6-1V24.2h-6l-1.3,3.2L197.3,27.4
		z"/>
</g>
</svg>
