<?xml version="1.0" encoding="utf-8"?>
<!-- Generator: Adobe Illustrator 22.1.0, SVG Export Plug-In . SVG Version: 6.00 Build 0)  -->
<svg version="1.1" id="Layer_1" xmlns="http://www.w3.org/2000/svg" xmlns:xlink="http://www.w3.org/1999/xlink" x="0px" y="0px"
	 viewBox="0 0 218 51" style="enable-background:new 0 0 218 51;" xml:space="preserve">
<style type="text/css">
	.st0{fill:#808184;}
	.st1{fill:#CFCECB;}
	.st2{fill:#F5B51A;}
	.st3{fill:#DD462F;}
	.st4{fill:#DD452E;}
	.st5{fill:#507DBF;}
	.st6{fill:#4F70A7;}
	.st7{fill:#C3432F;}
	.st8{fill:#D09D2A;}
	.st9{fill:#FFFFFF;}
	.st10{fill:#CAC8C6;}
	.st11{fill:#4472B8;}
	.st12{fill:#FFFFFF;stroke:#4472B8;stroke-width:8.380584e-02;stroke-miterlimit:10;}
	.st13{fill:#F3B01C;}
	.st14{fill:#DE482F;}
</style>
<g>
	<g>
		<path class="st0" d="M163.4,18.8c-2.2,0-4,0.7-5.3,2.1s-1.9,3.4-1.9,5.9s0.6,4.5,1.8,5.9s2.9,2.1,5.2,2.1c1.5,0,2.9-0.2,4.1-0.6
			v1.1c-1.2,0.4-2.6,0.6-4.4,0.6c-2.5,0-4.5-0.8-5.9-2.4c-1.4-1.6-2.2-3.9-2.2-6.8c0-1.8,0.3-3.4,1-4.8s1.7-2.4,3-3.2
			c1.3-0.7,2.8-1.1,4.5-1.1s3.3,0.3,4.7,1l-0.5,1.1C166.2,19.1,164.8,18.8,163.4,18.8z"/>
		<path class="st0" d="M172,35.7h-1.2V16.8h1.2V35.7z"/>
		<path class="st0" d="M187.2,29.1c0,2.2-0.5,3.8-1.6,5c-1,1.2-2.5,1.8-4.3,1.8c-1.2,0-2.2-0.3-3.1-0.8c-0.9-0.6-1.6-1.4-2-2.4
			c-0.5-1-0.7-2.3-0.7-3.6c0-2.2,0.5-3.8,1.6-5c1-1.2,2.5-1.8,4.3-1.8s3.2,0.6,4.3,1.8C186.7,25.3,187.2,26.9,187.2,29.1z
			 M176.8,29.1c0,1.8,0.4,3.2,1.2,4.2s1.9,1.5,3.4,1.5s2.6-0.5,3.4-1.5c0.8-1,1.2-2.4,1.2-4.2c0-1.8-0.4-3.2-1.2-4.2
			s-1.9-1.5-3.4-1.5s-2.6,0.5-3.4,1.5C177.2,25.8,176.8,27.2,176.8,29.1z"/>
		<path class="st0" d="M191.5,22.5V31c0,1.3,0.3,2.3,0.8,2.9c0.6,0.6,1.4,0.9,2.6,0.9c1.6,0,2.7-0.4,3.5-1.2
			c0.7-0.8,1.1-2.1,1.1-3.9v-7.3h1.2v13.2h-1l-0.2-1.8h-0.1c-0.9,1.4-2.4,2.1-4.6,2.1c-3,0-4.5-1.6-4.5-4.8v-8.6
			C190.3,22.5,191.5,22.5,191.5,22.5z"/>
		<path class="st0" d="M209.6,22.2c1,0,1.8,0.2,2.5,0.5s1.3,0.9,1.9,1.8h0.1c0-1-0.1-2-0.1-3v-4.8h1.2v18.9h-0.8l-0.3-2H214
			c-1,1.5-2.4,2.3-4.3,2.3c-1.8,0-3.2-0.6-4.2-1.7c-1-1.1-1.4-2.8-1.4-5c0-2.3,0.5-4,1.4-5.2C206.3,22.8,207.7,22.2,209.6,22.2z
			 M209.6,23.3c-1.4,0-2.5,0.5-3.3,1.5c-0.7,1-1.1,2.5-1.1,4.4c0,3.7,1.5,5.6,4.4,5.6c1.5,0,2.6-0.4,3.3-1.3c0.7-0.9,1-2.3,1-4.3V29
			c0-2-0.3-3.5-1-4.4C212.2,23.8,211.1,23.3,209.6,23.3z"/>
	</g>
	<g>
		<polygon class="st1" points="17.8,39.6 9.6,25.4 17.8,11.1 34.2,11.1 42.5,25.4 34.2,39.6 		"/>
		<path class="st2" d="M19.2,37.8l-7.3-12.5l-4-6.9c-0.3-0.5-0.4-1.2-0.4-1.9l-4.2,7.3c-0.5,0.9-0.5,2.3,0,3.2l10.1,17.6
			c0.5,0.9,1.7,1.6,2.7,1.6h12.1c0.5-0.3,0.9-0.7,1.1-1.1l4.1-7.3H19.2z"/>
		<polygon class="st3" points="49.3,23.9 39.2,6.4 43.3,13.5 		"/>
		<path class="st4" d="M49.3,23.9l-6-10.4c-0.5-0.3-1.1-0.5-1.7-0.5h-8.2l7.1,12.4l-7,12.4l-4.1,7.3c-0.2,0.4-0.7,0.8-1.1,1.1h8.2
			c1,0,2.2-0.7,2.7-1.6l4-7L49.3,27C49.8,26.2,49.8,24.8,49.3,23.9z"/>
		<path class="st5" d="M39.2,6.4c-0.5-0.9-1.7-1.6-2.7-1.6h-8H16.2c-1,0-2.2,0.7-2.7,1.6l-6,10.2c0,0.7,0.1,1.4,0.4,1.9l4,6.9L19,13
			h14.5h8.2c0.5,0,1.1,0.2,1.7,0.5L39.2,6.4z"/>
		<polygon class="st1" points="11.9,25.3 19.2,37.8 33.5,37.8 40.6,25.4 33.5,13 19,13 		"/>
		<path class="st6" d="M7.8,16.2l-0.3,0.4c0,0.7,0.1,1.4,0.4,1.9l4,6.9l2.1-3.7L7.8,16.2z"/>
		<path class="st7" d="M43.6,14l-0.3-0.5c-0.5-0.3-1.1-0.5-1.7-0.5h-8.2l2.1,3.7L43.6,14z"/>
		<path class="st8" d="M27.6,46.2h0.7c0.5-0.3,0.9-0.7,1.1-1.1l4.1-7.3h-4.4L27.6,46.2z"/>
		<g>
			<path class="st9" d="M26.3,31.9c-3.5,0-6.4-2.9-6.4-6.4s2.9-6.4,6.4-6.4s6.4,2.9,6.4,6.4S29.8,31.9,26.3,31.9z"/>
			<path class="st10" d="M26.3,19.2c3.5,0,6.3,2.8,6.3,6.3s-2.8,6.3-6.3,6.3S20,29,20,25.5S22.8,19.2,26.3,19.2 M26.3,19
				c-3.6,0-6.5,2.9-6.5,6.5s2.9,6.5,6.5,6.5s6.5-2.9,6.5-6.5S29.9,19,26.3,19L26.3,19z"/>
		</g>
		<g>
			<path class="st9" d="M16.7,10c-0.7,0-1.2-0.6-1.2-1.2c0-0.7,0.6-1.2,1.2-1.2c0.7,0,1.2,0.6,1.2,1.2C17.9,9.5,17.4,10,16.7,10z"/>
			<path class="st11" d="M16.7,7.7c0.6,0,1.1,0.5,1.1,1.1s-0.5,1.1-1.1,1.1s-1.1-0.5-1.1-1.1C15.5,8.2,16.1,7.7,16.7,7.7 M16.7,7.5
				c-0.7,0-1.3,0.6-1.3,1.3s0.6,1.3,1.3,1.3S18,9.5,18,8.8S17.4,7.5,16.7,7.5L16.7,7.5z"/>
		</g>
		<path class="st12" d="M37,8.8c0,0.6-0.5,1.1-1.1,1.1s-1.1-0.5-1.1-1.1s0.5-1.1,1.1-1.1C36.5,7.7,37,8.2,37,8.8z"/>
		<g>
			<path class="st9" d="M16.7,43.2c-0.7,0-1.2-0.6-1.2-1.2c0-0.7,0.6-1.2,1.2-1.2c0.7,0,1.2,0.6,1.2,1.2
				C17.9,42.6,17.4,43.2,16.7,43.2z"/>
			<path class="st13" d="M16.7,40.8c0.6,0,1.1,0.5,1.1,1.1S17.3,43,16.7,43s-1.1-0.5-1.1-1.1C15.5,41.3,16.1,40.8,16.7,40.8
				 M16.7,40.6c-0.7,0-1.3,0.6-1.3,1.3s0.6,1.3,1.3,1.3s1.3-0.6,1.3-1.3C18,41.2,17.4,40.6,16.7,40.6L16.7,40.6z"/>
		</g>
		<g>
			<path class="st9" d="M35.8,43.2c-0.7,0-1.2-0.6-1.2-1.2c0-0.7,0.6-1.2,1.2-1.2c0.7,0,1.2,0.6,1.2,1.2
				C37.1,42.6,36.5,43.2,35.8,43.2z"/>
			<path class="st14" d="M35.8,40.8c0.6,0,1.1,0.5,1.1,1.1S36.4,43,35.8,43s-1.1-0.5-1.1-1.1S35.2,40.8,35.8,40.8 M35.8,40.6
				c-0.7,0-1.3,0.6-1.3,1.3s0.6,1.3,1.3,1.3s1.3-0.6,1.3-1.3C37.1,41.2,36.6,40.6,35.8,40.6L35.8,40.6z"/>
		</g>
		<g>
			<path class="st9" d="M45.4,26.7c-0.7,0-1.2-0.6-1.2-1.2c0-0.7,0.6-1.2,1.2-1.2c0.7,0,1.2,0.6,1.2,1.2
				C46.7,26.2,46.1,26.7,45.4,26.7z"/>
			<path class="st14" d="M45.4,24.3c0.6,0,1.1,0.5,1.1,1.1s-0.5,1.1-1.1,1.1s-1.1-0.5-1.1-1.1C44.3,24.8,44.8,24.3,45.4,24.3
				 M45.4,24.1c-0.7,0-1.3,0.6-1.3,1.3c0,0.7,0.6,1.3,1.3,1.3s1.3-0.6,1.3-1.3C46.8,24.7,46.2,24.1,45.4,24.1L45.4,24.1z"/>
		</g>
		<g>
			<path class="st9" d="M7,26.7c-0.7,0-1.2-0.6-1.2-1.2c0-0.7,0.6-1.2,1.2-1.2c0.7,0,1.2,0.6,1.2,1.2C8.3,26.2,7.7,26.7,7,26.7z"/>
			<path class="st13" d="M7,24.3c0.6,0,1.1,0.5,1.1,1.1S7.6,26.5,7,26.5S5.9,26,5.9,25.4C5.9,24.8,6.4,24.3,7,24.3 M7,24.1
				c-0.7,0-1.3,0.6-1.3,1.3c0,0.7,0.6,1.3,1.3,1.3s1.3-0.6,1.3-1.3C8.4,24.7,7.8,24.1,7,24.1L7,24.1z"/>
		</g>
	</g>
	<g>
		<path class="st0" d="M82.2,24.3h-9.8v2.9h6.9c-0.3,4-3.7,5.7-6.8,5.7c-4,0-7.6-3.2-7.6-7.6c0-4.3,3.4-7.7,7.6-7.7
			c3.3,0,5.2,2.1,5.2,2.1l2-2.1c0,0-2.6-2.9-7.3-2.9c-6,0-10.6,5.1-10.6,10.5s4.4,10.6,10.8,10.6c5.6,0,9.8-3.9,9.8-9.6
			C82.4,25,82.2,24.3,82.2,24.3L82.2,24.3z"/>
		<path class="st0" d="M90.5,22.3c-4,0-6.8,3.1-6.8,6.7c0,3.7,2.8,6.8,6.9,6.8c3.7,0,6.8-2.8,6.8-6.8C97.3,24.6,93.7,22.3,90.5,22.3
			L90.5,22.3z M90.5,24.9c2,0,3.8,1.6,3.8,4.1s-1.8,4.1-3.8,4.1c-2.2,0-3.9-1.7-3.9-4.1C86.6,26.7,88.3,24.9,90.5,24.9L90.5,24.9z"
			/>
		<path class="st0" d="M105.2,22.3c-4,0-6.8,3.1-6.8,6.7c0,3.7,2.8,6.8,6.9,6.8c3.7,0,6.8-2.8,6.8-6.8
			C112,24.6,108.5,22.3,105.2,22.3L105.2,22.3z M105.2,24.9c2,0,3.8,1.6,3.8,4.1s-1.8,4.1-3.8,4.1c-2.2,0-3.9-1.7-3.9-4.1
			C101.4,26.7,103,24.9,105.2,24.9L105.2,24.9z"/>
		<path class="st0" d="M119.7,22.3c-3.6,0-6.5,3.2-6.5,6.8c0,4.1,3.3,6.8,6.4,6.8c1.9,0,3-0.8,3.7-1.6v1.3c0,2.3-1.4,3.7-3.6,3.7
			c-2.1,0-3.1-1.5-3.5-2.4l-2.6,1.1c0.9,2,2.8,4,6.1,4c3.6,0,6.4-2.3,6.4-7.1V22.5h-2.8v1.3C122.5,22.9,121.3,22.3,119.7,22.3
			L119.7,22.3z M120,24.9c1.8,0,3.6,1.5,3.6,4.1s-1.8,4.1-3.7,4.1c-1.9,0-3.8-1.6-3.8-4.1C116.2,26.5,118.1,24.9,120,24.9L120,24.9z
			"/>
		<path class="st0" d="M138.6,22.3c-3.4,0-6.3,2.7-6.3,6.8c0,4.3,3.2,6.8,6.7,6.8c2.9,0,4.6-1.6,5.7-3l-2.3-1.6
			c-0.6,0.9-1.6,1.9-3.3,1.9c-1.9,0-2.8-1-3.3-2.1l9.1-3.8l-0.5-1.1C143.4,24.1,141.3,22.3,138.6,22.3L138.6,22.3z M138.7,24.9
			c1.2,0,2.1,0.7,2.5,1.4l-6.1,2.5C134.9,26.9,136.8,24.9,138.7,24.9L138.7,24.9z"/>
		<rect x="128.1" y="15.4" class="st0" width="2.8" height="20"/>
	</g>
</g>
</svg>
