<?xml version="1.0" encoding="utf-8"?>
<!-- Generator: Adobe Illustrator 22.1.0, SVG Export Plug-In . SVG Version: 6.00 Build 0)  -->
<svg version="1.1" id="Layer_1" xmlns="http://www.w3.org/2000/svg" xmlns:xlink="http://www.w3.org/1999/xlink" x="0px" y="0px"
	 viewBox="0 0 218 51" style="enable-background:new 0 0 218 51;" xml:space="preserve">
<style type="text/css">
	.st0{fill:#F15623;}
	.st1{fill:#666766;}
</style>
<g>
	<path class="st0" d="M153.2,20h-2.9v11.6h2.9V20z M67.3,20h-2.9v11.6h2.9V20z M18.2,21.4l-3.3,3.3c-0.8,0.8-2.3,0.8-3.1,0
		c-0.4-0.4-0.6-1-0.6-1.5c0-0.6,0.2-1.1,0.6-1.5L28.2,5.2c-1-0.4-2.1-0.7-3.1-1C23,3.5,21,3.1,19.3,3.1c-6.7,0-19,6.7-19,6.7
		c0,4.5,2.2,17.9,4.5,24.6c0.5,1.4,1.4,2.8,2.5,4.1l2-2c-0.9-1-1.5-2.1-1.8-3c-1.9-5.8-3.9-16.9-4.3-22.1c4-2,11.8-5.5,16.1-5.5
		c1,0,2.3,0.2,3.6,0.5L9.8,19.6c-1,1-1.5,2.2-1.5,3.6s0.5,2.6,1.5,3.6c2,2,5.2,2,7.2,0l3.3-3.3L18.2,21.4z M53.7,19.9
		c-0.2-0.3-0.2-0.6-0.2-1s0.1-0.8,0.3-1.1s0.4-0.5,0.7-0.7s0.6-0.3,1-0.4s0.7-0.1,1.1-0.1c0.6,0,1.2,0.1,1.8,0.4s1,0.6,1.4,1l2-2.2
		c-0.7-0.6-1.4-1.1-2.3-1.4c-0.9-0.3-1.8-0.5-2.6-0.5s-1.5,0.1-2.3,0.3c-0.7,0.2-1.4,0.5-2,0.9s-1.1,0.9-1.4,1.6s-0.5,1.4-0.5,2.2
		c0,0.8,0.1,1.5,0.4,2c0.3,0.5,0.6,1,1,1.4s0.9,0.7,1.4,0.9c0.5,0.2,1,0.4,1.5,0.6s1,0.3,1.5,0.5s0.9,0.3,1.3,0.6
		c0.4,0.2,0.6,0.5,0.8,0.8s0.3,0.7,0.3,1.1c0,0.5-0.1,0.9-0.3,1.2c-0.2,0.3-0.4,0.6-0.7,0.8c-0.3,0.2-0.6,0.4-1,0.4
		c-0.4,0.1-0.7,0.1-1.1,0.1c-0.7,0-1.4-0.2-2.1-0.5C53,28.5,52.4,28,52,27.4l-2.2,2c0.7,0.8,1.5,1.4,2.6,1.8s2.1,0.6,3.2,0.6
		c0.8,0,1.6-0.1,2.4-0.3c0.8-0.2,1.4-0.6,2-1s1-1,1.3-1.7s0.5-1.5,0.5-2.4c0-0.8-0.2-1.5-0.5-2.1s-0.7-1-1.2-1.4s-1-0.7-1.6-0.9
		c-0.6-0.2-1.2-0.4-1.7-0.6c-0.5-0.1-0.9-0.3-1.3-0.4c-0.4-0.1-0.7-0.3-1-0.5C54,20.4,53.8,20.2,53.7,19.9 M67.1,17.3
		c0.4-0.3,0.5-0.7,0.5-1.2s-0.2-0.9-0.5-1.2c-0.4-0.3-0.8-0.5-1.3-0.5s-1,0.2-1.3,0.5S64,15.6,64,16.1s0.2,0.9,0.5,1.2
		c0.3,0.3,0.8,0.5,1.3,0.5C66.3,17.8,66.8,17.6,67.1,17.3 M79.6,25.7c0,0.5-0.1,0.9-0.2,1.4c-0.2,0.4-0.4,0.8-0.7,1.2
		c-0.3,0.3-0.7,0.6-1.1,0.8c-0.4,0.2-0.9,0.3-1.4,0.3s-1-0.1-1.4-0.3c-0.4-0.2-0.8-0.5-1-0.8c-0.3-0.3-0.5-0.7-0.6-1.2
		C73,26.7,73,26.2,73,25.8c0-0.5,0.1-1,0.2-1.4c0.2-0.4,0.4-0.8,0.6-1.2c0.3-0.3,0.6-0.6,1-0.8c0.4-0.2,0.9-0.3,1.4-0.3
		s1,0.1,1.4,0.3c0.4,0.2,0.8,0.5,1.1,0.8c0.3,0.3,0.5,0.7,0.7,1.2C79.5,24.7,79.6,25.2,79.6,25.7 M81.9,33.3
		c0.3-0.8,0.4-1.8,0.4-2.8V20h-2.7v1.7l0,0c-0.4-0.7-1-1.2-1.7-1.6c-0.7-0.3-1.5-0.5-2.3-0.5c-0.9,0-1.6,0.2-2.3,0.5
		c-0.7,0.3-1.3,0.8-1.8,1.3s-0.9,1.2-1.1,1.9C70.1,24,70,24.8,70,25.7c0,0.8,0.1,1.6,0.4,2.3c0.3,0.7,0.7,1.4,1.1,1.9
		c0.5,0.5,1.1,1,1.8,1.3c0.7,0.3,1.5,0.5,2.4,0.5c0.8,0,1.5-0.2,2.2-0.4c0.7-0.3,1.2-0.7,1.6-1.3l0,0v0.8c0,0.6-0.1,1.1-0.2,1.6
		s-0.3,0.9-0.6,1.3c-0.3,0.4-0.7,0.6-1.1,0.8c-0.5,0.2-1.1,0.3-1.7,0.3c-0.7,0-1.4-0.1-2.1-0.4c-0.7-0.3-1.3-0.7-1.9-1.2l-1.7,2.2
		c0.4,0.3,0.8,0.6,1.3,0.8s1,0.4,1.5,0.6c0.5,0.2,1,0.3,1.5,0.4c0.5,0.1,1,0.1,1.5,0.1c1.1,0,2.1-0.2,2.9-0.5s1.5-0.8,2-1.4
		C81.3,34.9,81.7,34.2,81.9,33.3 M93.1,31.5H96v-7.2c0-0.6-0.1-1.2-0.2-1.7c-0.2-0.6-0.4-1.1-0.8-1.5c-0.3-0.4-0.8-0.8-1.3-1
		c-0.5-0.3-1.2-0.4-1.9-0.4c-0.9,0-1.6,0.2-2.2,0.7c-0.6,0.4-1.1,0.9-1.3,1.5l0,0V20h-2.7v11.6h2.9v-6.4c0-0.4,0.1-0.8,0.2-1.1
		c0.1-0.4,0.3-0.7,0.5-1s0.5-0.5,0.8-0.7s0.7-0.3,1.2-0.3s0.8,0.1,1.1,0.3c0.3,0.2,0.5,0.4,0.7,0.7c0.2,0.3,0.3,0.6,0.3,1
		s0.1,0.7,0.1,1.1v6.3H93.1z M106.3,26.7c0,0.9-0.3,1.6-0.8,2.2c-0.5,0.5-1.3,0.8-2.3,0.8c-0.2,0-0.5,0-0.7-0.1
		c-0.2,0-0.5-0.1-0.6-0.2c-0.2-0.1-0.3-0.3-0.5-0.4c-0.1-0.2-0.2-0.4-0.2-0.7c0-0.4,0.1-0.8,0.4-1s0.6-0.4,1.1-0.6
		c0.4-0.1,0.9-0.2,1.4-0.3c0.5,0,1-0.1,1.5-0.1h0.7V26.7z M106.4,31.5h2.7v-7c0-0.6-0.1-1.2-0.2-1.7c-0.2-0.6-0.4-1.1-0.8-1.6
		s-0.9-0.8-1.6-1.1c-0.7-0.3-1.5-0.4-2.5-0.4c-0.9,0-1.8,0.2-2.6,0.5c-0.9,0.3-1.6,0.8-2.3,1.4l1.5,1.8c0.4-0.4,0.8-0.7,1.4-0.9
		c0.6-0.3,1.1-0.4,1.8-0.4c0.7,0,1.3,0.2,1.9,0.5c0.5,0.3,0.8,0.9,0.8,1.6v0.3c-0.9,0-1.8,0-2.8,0.1c-0.9,0.1-1.8,0.3-2.6,0.5
		c-0.8,0.3-1.4,0.7-1.9,1.2s-0.7,1.2-0.7,2.1c0,0.7,0.1,1.2,0.4,1.7s0.6,0.8,1.1,1.1c0.4,0.3,0.9,0.5,1.4,0.6s1,0.2,1.5,0.2
		c0.8,0,1.5-0.2,2.2-0.5c0.6-0.3,1.1-0.8,1.4-1.3h0.1v1.3H106.4z M112.1,31.5h2.9V13.4h-2.9V31.5z M127.3,19.9
		c-0.2-0.3-0.2-0.6-0.2-1s0.1-0.8,0.3-1.1s0.4-0.5,0.7-0.7c0.3-0.2,0.6-0.3,1-0.4s0.7-0.1,1.1-0.1c0.6,0,1.2,0.1,1.8,0.4
		s1,0.6,1.4,1l2-2.2c-0.7-0.6-1.4-1.1-2.3-1.4c-0.9-0.3-1.8-0.5-2.6-0.5s-1.5,0.1-2.3,0.3c-0.7,0.2-1.4,0.5-2,0.9s-1.1,0.9-1.4,1.6
		c-0.4,0.6-0.5,1.4-0.5,2.2c0,0.8,0.1,1.5,0.4,2s0.6,1,1,1.4s0.9,0.7,1.4,0.9c0.5,0.2,1,0.4,1.5,0.6s1,0.3,1.5,0.5s0.9,0.3,1.3,0.6
		c0.4,0.2,0.6,0.5,0.8,0.8s0.3,0.7,0.3,1.1c0,0.5-0.1,0.9-0.3,1.2c-0.2,0.3-0.4,0.6-0.7,0.8c-0.3,0.2-0.6,0.4-1,0.4
		c-0.4,0.1-0.7,0.1-1.1,0.1c-0.7,0-1.4-0.2-2.1-0.5c-0.7-0.3-1.3-0.8-1.7-1.4l-2.2,2c0.7,0.8,1.5,1.4,2.6,1.8s2.1,0.6,3.2,0.6
		c0.8,0,1.6-0.1,2.4-0.3c0.8-0.2,1.4-0.6,2-1s1-1,1.3-1.7s0.5-1.5,0.5-2.4c0-0.8-0.2-1.5-0.5-2.1s-0.7-1-1.2-1.4s-1-0.7-1.6-0.9
		c-0.6-0.2-1.2-0.4-1.7-0.6c-0.5-0.1-0.9-0.3-1.3-0.4c-0.4-0.1-0.7-0.3-1-0.5C127.7,20.4,127.5,20.2,127.3,19.9 M145.7,23.2l2-1.7
		c-0.5-0.6-1.1-1-1.9-1.3c-0.8-0.3-1.6-0.5-2.5-0.5s-1.6,0.1-2.4,0.4c-0.7,0.3-1.4,0.7-2,1.2s-1,1.2-1.3,1.9
		c-0.3,0.8-0.5,1.6-0.5,2.5c0,1,0.2,1.8,0.5,2.6c0.3,0.8,0.8,1.4,1.3,1.9c0.6,0.5,1.2,0.9,2,1.2c0.8,0.3,1.6,0.4,2.4,0.4
		c0.9,0,1.7-0.1,2.4-0.4s1.4-0.7,1.8-1.2l-1.8-1.8c-0.3,0.3-0.6,0.6-1.1,0.8c-0.5,0.2-0.9,0.3-1.3,0.3c-0.5,0-1-0.1-1.4-0.3
		c-0.4-0.2-0.8-0.5-1-0.9c-0.3-0.4-0.5-0.7-0.6-1.2c-0.1-0.4-0.2-0.9-0.2-1.3s0.1-0.9,0.2-1.3c0.1-0.4,0.3-0.8,0.6-1.2
		c0.3-0.4,0.6-0.6,1-0.9c0.4-0.2,0.9-0.3,1.4-0.3s0.9,0.1,1.4,0.3C145.2,22.6,145.5,22.9,145.7,23.2 M153.1,17.3
		c0.4-0.3,0.5-0.7,0.5-1.2s-0.2-0.9-0.5-1.2c-0.4-0.3-0.8-0.5-1.3-0.5s-1,0.2-1.3,0.5s-0.5,0.7-0.5,1.2s0.2,0.9,0.5,1.2
		c0.3,0.3,0.8,0.5,1.3,0.5S152.7,17.6,153.1,17.3 M164.6,24.6h-5.9c0.1-0.8,0.4-1.5,1-2s1.3-0.8,2.2-0.8c0.5,0,0.9,0.1,1.2,0.2
		c0.3,0.2,0.6,0.4,0.9,0.6c0.2,0.3,0.4,0.6,0.5,0.9C164.6,23.9,164.6,24.2,164.6,24.6 M167.5,26.7c0-0.1,0-0.3,0-0.4v-0.4
		c0-1-0.1-2-0.4-2.7c-0.3-0.8-0.7-1.4-1.2-2c-0.5-0.5-1.1-0.9-1.8-1.2c-0.7-0.3-1.4-0.4-2.2-0.4c-0.9,0-1.7,0.1-2.4,0.4
		s-1.4,0.7-1.9,1.3c-0.5,0.5-1,1.2-1.3,2s-0.5,1.6-0.5,2.5s0.2,1.8,0.5,2.5s0.7,1.4,1.3,1.9s1.2,0.9,2,1.2c0.8,0.3,1.6,0.4,2.5,0.4
		c2.2,0,3.8-0.8,5-2.3l-1.9-1.5c-0.3,0.5-0.7,0.8-1.2,1.1c-0.5,0.3-1.1,0.4-1.8,0.4c-0.4,0-0.8-0.1-1.2-0.2s-0.7-0.3-1-0.6
		c-0.3-0.2-0.5-0.5-0.7-0.9c-0.2-0.3-0.3-0.7-0.3-1.1C159,26.7,167.5,26.7,167.5,26.7z M177.8,31.5h2.9v-7.2c0-0.6-0.1-1.2-0.2-1.7
		c-0.2-0.6-0.4-1.1-0.8-1.5c-0.3-0.4-0.8-0.8-1.3-1c-0.5-0.3-1.2-0.4-1.9-0.4c-0.9,0-1.6,0.2-2.2,0.7c-0.6,0.4-1.1,0.9-1.3,1.5l0,0
		V20h-2.7v11.6h2.9v-6.4c0-0.4,0.1-0.8,0.2-1.1c0.1-0.4,0.3-0.7,0.5-1s0.5-0.5,0.8-0.7s0.7-0.3,1.2-0.3s0.8,0.1,1.1,0.3
		c0.3,0.2,0.5,0.4,0.7,0.7c0.2,0.3,0.3,0.6,0.3,1s0.1,0.7,0.1,1.1v6.3H177.8z M191.4,23.2l2-1.7c-0.5-0.6-1.1-1-1.9-1.3
		c-0.8-0.3-1.6-0.5-2.5-0.5s-1.6,0.1-2.4,0.4c-0.7,0.3-1.4,0.7-2,1.2s-1,1.2-1.3,1.9c-0.3,0.8-0.5,1.6-0.5,2.5c0,1,0.2,1.8,0.5,2.6
		c0.3,0.8,0.8,1.4,1.3,1.9c0.6,0.5,1.2,0.9,2,1.2c0.8,0.3,1.6,0.4,2.4,0.4c0.9,0,1.7-0.1,2.4-0.4s1.4-0.7,1.8-1.2l-1.8-1.8
		c-0.3,0.3-0.6,0.6-1.1,0.8c-0.4,0.2-0.9,0.3-1.3,0.3c-0.5,0-1-0.1-1.4-0.3c-0.4-0.2-0.7-0.5-1-0.9s-0.5-0.7-0.6-1.2
		c-0.1-0.4-0.2-0.9-0.2-1.3s0.1-0.9,0.2-1.3c0.1-0.4,0.3-0.8,0.6-1.2c0.3-0.4,0.6-0.6,1-0.9c0.4-0.2,0.9-0.3,1.4-0.3
		s0.9,0.1,1.4,0.3C190.8,22.6,191.1,22.9,191.4,23.2 M203.5,24.6h-5.9c0.1-0.8,0.4-1.5,1-2s1.3-0.8,2.2-0.8c0.5,0,0.9,0.1,1.2,0.2
		c0.3,0.2,0.6,0.4,0.9,0.6c0.2,0.3,0.4,0.6,0.5,0.9C203.5,23.9,203.5,24.2,203.5,24.6 M206.4,26.7c0-0.1,0-0.3,0-0.4v-0.4
		c0-1-0.1-2-0.4-2.7c-0.3-0.8-0.7-1.4-1.2-2c-0.5-0.5-1.1-0.9-1.8-1.2c-0.7-0.3-1.4-0.4-2.2-0.4c-0.9,0-1.7,0.1-2.4,0.4
		s-1.4,0.7-1.9,1.3c-0.5,0.5-1,1.2-1.3,2s-0.5,1.6-0.5,2.5s0.2,1.8,0.5,2.5s0.7,1.4,1.3,1.9s1.2,0.9,2,1.2c0.8,0.3,1.6,0.4,2.5,0.4
		c2.2,0,3.8-0.8,5-2.3l-2-1.5c-0.3,0.5-0.7,0.8-1.2,1.1c-0.5,0.3-1.1,0.4-1.8,0.4c-0.4,0-0.8-0.1-1.2-0.2s-0.7-0.3-1-0.6
		c-0.3-0.2-0.6-0.5-0.7-0.9c-0.2-0.3-0.3-0.7-0.3-1.1C197.8,26.7,206.4,26.7,206.4,26.7z M217.8,21.4c-0.5-0.6-1.1-1-1.9-1.3
		c-0.8-0.3-1.6-0.4-2.4-0.4c-0.6,0-1.1,0.1-1.7,0.2c-0.5,0.1-1,0.4-1.5,0.7c-0.4,0.3-0.8,0.7-1,1.1c-0.3,0.5-0.4,1-0.4,1.7
		c0,0.5,0.1,1,0.3,1.4s0.4,0.7,0.8,0.9c0.3,0.3,0.7,0.4,1.1,0.6c0.4,0.2,0.8,0.3,1.3,0.4c0.9,0.2,1.5,0.4,2,0.6
		c0.4,0.2,0.7,0.6,0.7,1c0,0.3-0.1,0.5-0.2,0.7c-0.1,0.2-0.3,0.3-0.4,0.4c-0.2,0.1-0.4,0.2-0.6,0.2c-0.2,0-0.4,0.1-0.6,0.1
		c-0.6,0-1.2-0.1-1.7-0.4s-0.9-0.6-1.3-1l-1.9,1.8c0.6,0.6,1.3,1.1,2.1,1.4c0.9,0.3,1.7,0.5,2.6,0.5c0.6,0,1.2-0.1,1.8-0.2
		s1.1-0.4,1.5-0.7c0.4-0.3,0.8-0.7,1.1-1.2s0.4-1.1,0.4-1.8c0-0.6-0.1-1-0.3-1.4s-0.5-0.7-0.9-1s-0.8-0.5-1.2-0.6
		c-0.4-0.2-0.9-0.3-1.3-0.4c-0.8-0.2-1.4-0.4-1.9-0.6c-0.4-0.2-0.6-0.5-0.6-1c0-0.4,0.2-0.8,0.6-1c0.4-0.2,0.8-0.3,1.3-0.3
		s1,0.1,1.5,0.4c0.4,0.3,0.8,0.5,1.1,0.9L217.8,21.4z"/>
	<path class="st1" d="M153.2,20h-2.9v11.6h2.9V20z M33.8,34.5c2.2-6.7,4.5-20.1,4.5-24.6c0,0-3.2-1.7-7.1-3.4L29,8.6
		c2.4,1,4.7,2.1,6.4,2.9c-0.4,5.2-2.3,16.2-4.3,22.1c-1.2,3.7-7.5,8.4-11.9,11.1c-1.8-1.1-3.9-2.5-5.9-4.1l15.3-15.3
		c1-1,1.5-2.2,1.5-3.6s-0.5-2.6-1.5-3.6s-2.2-1.5-3.6-1.5s-2.6,0.5-3.6,1.5l-3.3,3.3l2.1,2.1l3.3-3.3c0.8-0.8,2.3-0.8,3.1,0
		c0.4,0.4,0.6,1,0.6,1.5c0,0.6-0.2,1.1-0.6,1.5L9.2,40.7c0.7,0.7,1.5,1.3,2.2,1.9c3.9,3.1,7.9,5.3,7.9,5.3S31.6,41.2,33.8,34.5
		 M127.3,19.9c-0.2-0.3-0.2-0.6-0.2-1s0.1-0.8,0.3-1.1s0.4-0.5,0.7-0.7c0.3-0.2,0.6-0.3,1-0.4s0.7-0.1,1.1-0.1
		c0.6,0,1.2,0.1,1.8,0.4s1,0.6,1.4,1l2-2.2c-0.7-0.6-1.4-1.1-2.3-1.4c-0.9-0.3-1.8-0.5-2.6-0.5s-1.5,0.1-2.3,0.3
		c-0.7,0.2-1.4,0.5-2,0.9s-1.1,0.9-1.4,1.6c-0.4,0.6-0.5,1.4-0.5,2.2c0,0.8,0.1,1.5,0.4,2s0.6,1,1,1.4s0.9,0.7,1.4,0.9
		c0.5,0.2,1,0.4,1.5,0.6s1,0.3,1.5,0.5s0.9,0.3,1.3,0.6c0.4,0.2,0.6,0.5,0.8,0.8s0.3,0.7,0.3,1.1c0,0.5-0.1,0.9-0.3,1.2
		c-0.2,0.3-0.4,0.6-0.7,0.8c-0.3,0.2-0.6,0.4-1,0.4c-0.4,0.1-0.7,0.1-1.1,0.1c-0.7,0-1.4-0.2-2.1-0.5c-0.7-0.3-1.3-0.8-1.7-1.4
		l-2.2,2c0.7,0.8,1.5,1.4,2.6,1.8s2.1,0.6,3.2,0.6c0.8,0,1.6-0.1,2.4-0.3c0.8-0.2,1.4-0.6,2-1s1-1,1.3-1.7s0.5-1.5,0.5-2.4
		c0-0.8-0.2-1.5-0.5-2.1s-0.7-1-1.2-1.4s-1-0.7-1.6-0.9c-0.6-0.2-1.2-0.4-1.7-0.6c-0.5-0.1-0.9-0.3-1.3-0.4c-0.4-0.1-0.7-0.3-1-0.5
		C127.7,20.4,127.5,20.2,127.3,19.9 M145.7,23.2l2-1.7c-0.5-0.6-1.1-1-1.9-1.3c-0.8-0.3-1.6-0.5-2.5-0.5s-1.6,0.1-2.4,0.4
		c-0.7,0.3-1.4,0.7-2,1.2s-1,1.2-1.3,1.9c-0.3,0.8-0.5,1.6-0.5,2.5c0,1,0.2,1.8,0.5,2.6c0.3,0.8,0.8,1.4,1.3,1.9
		c0.6,0.5,1.2,0.9,2,1.2c0.8,0.3,1.6,0.4,2.4,0.4c0.9,0,1.7-0.1,2.4-0.4s1.4-0.7,1.8-1.2l-1.8-1.8c-0.3,0.3-0.6,0.6-1.1,0.8
		c-0.5,0.2-0.9,0.3-1.3,0.3c-0.5,0-1-0.1-1.4-0.3c-0.4-0.2-0.8-0.5-1-0.9c-0.3-0.4-0.5-0.7-0.6-1.2c-0.1-0.4-0.2-0.9-0.2-1.3
		s0.1-0.9,0.2-1.3c0.1-0.4,0.3-0.8,0.6-1.2c0.3-0.4,0.6-0.6,1-0.9c0.4-0.2,0.9-0.3,1.4-0.3s0.9,0.1,1.4,0.3
		C145.2,22.6,145.5,22.9,145.7,23.2 M153.1,17.3c0.4-0.3,0.5-0.7,0.5-1.2s-0.2-0.9-0.5-1.2c-0.4-0.3-0.8-0.5-1.3-0.5s-1,0.2-1.3,0.5
		s-0.5,0.7-0.5,1.2s0.2,0.9,0.5,1.2c0.3,0.3,0.8,0.5,1.3,0.5S152.7,17.6,153.1,17.3 M164.6,24.6h-5.9c0.1-0.8,0.4-1.5,1-2
		s1.3-0.8,2.2-0.8c0.5,0,0.9,0.1,1.2,0.2c0.3,0.2,0.6,0.4,0.9,0.6c0.2,0.3,0.4,0.6,0.5,0.9C164.6,23.9,164.6,24.2,164.6,24.6
		 M167.5,26.7c0-0.1,0-0.3,0-0.4v-0.4c0-1-0.1-2-0.4-2.7c-0.3-0.8-0.7-1.4-1.2-2c-0.5-0.5-1.1-0.9-1.8-1.2c-0.7-0.3-1.4-0.4-2.2-0.4
		c-0.9,0-1.7,0.1-2.4,0.4s-1.4,0.7-1.9,1.3c-0.5,0.5-1,1.2-1.3,2s-0.5,1.6-0.5,2.5s0.2,1.8,0.5,2.5s0.7,1.4,1.3,1.9s1.2,0.9,2,1.2
		c0.8,0.3,1.6,0.4,2.5,0.4c2.2,0,3.8-0.8,5-2.3l-1.9-1.5c-0.3,0.5-0.7,0.8-1.2,1.1c-0.5,0.3-1.1,0.4-1.8,0.4c-0.4,0-0.8-0.1-1.2-0.2
		s-0.7-0.3-1-0.6c-0.3-0.2-0.5-0.5-0.7-0.9c-0.2-0.3-0.3-0.7-0.3-1.1C159,26.7,167.5,26.7,167.5,26.7z M177.8,31.5h2.9v-7.2
		c0-0.6-0.1-1.2-0.2-1.7c-0.2-0.6-0.4-1.1-0.8-1.5c-0.3-0.4-0.8-0.8-1.3-1c-0.5-0.3-1.2-0.4-1.9-0.4c-0.9,0-1.6,0.2-2.2,0.7
		c-0.6,0.4-1.1,0.9-1.3,1.5l0,0V20h-2.7v11.6h2.9v-6.4c0-0.4,0.1-0.8,0.2-1.1c0.1-0.4,0.3-0.7,0.5-1s0.5-0.5,0.8-0.7
		s0.7-0.3,1.2-0.3s0.8,0.1,1.1,0.3c0.3,0.2,0.5,0.4,0.7,0.7c0.2,0.3,0.3,0.6,0.3,1s0.1,0.7,0.1,1.1v6.3H177.8z M191.4,23.2l2-1.7
		c-0.5-0.6-1.1-1-1.9-1.3c-0.8-0.3-1.6-0.5-2.5-0.5s-1.6,0.1-2.4,0.4c-0.7,0.3-1.4,0.7-2,1.2s-1,1.2-1.3,1.9
		c-0.3,0.8-0.5,1.6-0.5,2.5c0,1,0.2,1.8,0.5,2.6c0.3,0.8,0.8,1.4,1.3,1.9c0.6,0.5,1.2,0.9,2,1.2c0.8,0.3,1.6,0.4,2.4,0.4
		c0.9,0,1.7-0.1,2.4-0.4s1.4-0.7,1.8-1.2l-1.8-1.8c-0.3,0.3-0.6,0.6-1.1,0.8c-0.4,0.2-0.9,0.3-1.3,0.3c-0.5,0-1-0.1-1.4-0.3
		c-0.4-0.2-0.7-0.5-1-0.9s-0.5-0.7-0.6-1.2c-0.1-0.4-0.2-0.9-0.2-1.3s0.1-0.9,0.2-1.3c0.1-0.4,0.3-0.8,0.6-1.2
		c0.3-0.4,0.6-0.6,1-0.9c0.4-0.2,0.9-0.3,1.4-0.3s0.9,0.1,1.4,0.3C190.8,22.6,191.1,22.9,191.4,23.2 M203.5,24.6h-5.9
		c0.1-0.8,0.4-1.5,1-2s1.3-0.8,2.2-0.8c0.5,0,0.9,0.1,1.2,0.2c0.3,0.2,0.6,0.4,0.9,0.6c0.2,0.3,0.4,0.6,0.5,0.9
		C203.5,23.9,203.5,24.2,203.5,24.6 M206.4,26.7c0-0.1,0-0.3,0-0.4v-0.4c0-1-0.1-2-0.4-2.7c-0.3-0.8-0.7-1.4-1.2-2
		c-0.5-0.5-1.1-0.9-1.8-1.2c-0.7-0.3-1.4-0.4-2.2-0.4c-0.9,0-1.7,0.1-2.4,0.4s-1.4,0.7-1.9,1.3c-0.5,0.5-1,1.2-1.3,2
		s-0.5,1.6-0.5,2.5s0.2,1.8,0.5,2.5s0.7,1.4,1.3,1.9s1.2,0.9,2,1.2c0.8,0.3,1.6,0.4,2.5,0.4c2.2,0,3.8-0.8,5-2.3l-2-1.5
		c-0.3,0.5-0.7,0.8-1.2,1.1c-0.5,0.3-1.1,0.4-1.8,0.4c-0.4,0-0.8-0.1-1.2-0.2s-0.7-0.3-1-0.6c-0.3-0.2-0.6-0.5-0.7-0.9
		c-0.2-0.3-0.3-0.7-0.3-1.1C197.8,26.7,206.4,26.7,206.4,26.7z M217.8,21.4c-0.5-0.6-1.1-1-1.9-1.3c-0.8-0.3-1.6-0.4-2.4-0.4
		c-0.6,0-1.1,0.1-1.7,0.2c-0.5,0.1-1,0.4-1.5,0.7c-0.4,0.3-0.8,0.7-1,1.1c-0.3,0.5-0.4,1-0.4,1.7c0,0.5,0.1,1,0.3,1.4
		s0.4,0.7,0.8,0.9c0.3,0.3,0.7,0.4,1.1,0.6c0.4,0.2,0.8,0.3,1.3,0.4c0.9,0.2,1.5,0.4,2,0.6c0.4,0.2,0.7,0.6,0.7,1
		c0,0.3-0.1,0.5-0.2,0.7c-0.1,0.2-0.3,0.3-0.4,0.4c-0.2,0.1-0.4,0.2-0.6,0.2c-0.2,0-0.4,0.1-0.6,0.1c-0.6,0-1.2-0.1-1.7-0.4
		s-0.9-0.6-1.3-1l-1.9,1.8c0.6,0.6,1.3,1.1,2.1,1.4c0.9,0.3,1.7,0.5,2.6,0.5c0.6,0,1.2-0.1,1.8-0.2s1.1-0.4,1.5-0.7
		c0.4-0.3,0.8-0.7,1.1-1.2s0.4-1.1,0.4-1.8c0-0.6-0.1-1-0.3-1.4s-0.5-0.7-0.9-1s-0.8-0.5-1.2-0.6c-0.4-0.2-0.9-0.3-1.3-0.4
		c-0.8-0.2-1.4-0.4-1.9-0.6c-0.4-0.2-0.6-0.5-0.6-1c0-0.4,0.2-0.8,0.6-1c0.4-0.2,0.8-0.3,1.3-0.3s1,0.1,1.5,0.4
		c0.4,0.3,0.8,0.5,1.1,0.9L217.8,21.4z"/>
</g>
</svg>
