<?xml version="1.0" encoding="UTF-8"?>
<svg width="104px" height="51px" viewBox="0 0 104 51" version="1.1" xmlns="http://www.w3.org/2000/svg" xmlns:xlink="http://www.w3.org/1999/xlink">
    <!-- Generator: Sketch 50.2 (55047) - http://www.bohemiancoding.com/sketch -->
    <title>Conf2018-logos-wallarm-268x86</title>
    <desc>Created with Sketch.</desc>
    <defs></defs>
    <g id="Page-1" stroke="none" stroke-width="1" fill="none" fill-rule="evenodd">
        <g id="Conf2018-logos-wallarm-268x86" fill-rule="nonzero">
            <polygon id="Shape" fill="#F26122" points="94.2 13.8 94.2 4.1 74.8 12.7 74.8 0.3 55.1 9.1 55.1 28.7 74.6 20.1 74.6 25.8 94 17.1 94 20.6 103.3 16.4 103.3 9.8"></polygon>
            <polygon id="Shape" fill="#231F20" points="17.4 45.4 20.6 34.7 24.2 34.7 19.1 50.5 15.9 50.5 12.4 39.8 8.9 50.5 5.7 50.5 0.6 34.7 4.3 34.7 7.4 45.4 10.9 34.6 13.9 34.6"></polygon>
            <rect id="Rectangle-path" fill="#231F20" x="40.9" y="28.7" width="3.6" height="21.6"></rect>
            <rect id="Rectangle-path" fill="#231F20" x="47.1" y="28.7" width="3.6" height="21.6"></rect>
            <path d="M72.2,50.3 L68.6,50.3 L68.6,34.7 L72.2,34.7 L72.2,38.2 C73.2,35.9 75,34.3 77.7,34.4 L77.7,38.2 L77.5,38.2 C74.4,38.2 72.2,40.2 72.2,44.4 L72.2,50.3 Z" id="Shape" fill="#231F20"></path>
            <path d="M97.9,34.4 C101.3,34.4 103.4,36.6 103.4,40.4 L103.4,50.4 L99.8,50.4 L99.8,41.5 C99.8,39 98.6,37.7 96.6,37.7 C94.6,37.7 93.3,39.1 93.3,41.6 L93.3,50.4 L89.7,50.4 L89.7,41.5 C89.7,39.1 88.5,37.7 86.5,37.7 C84.5,37.7 83.2,39.2 83.2,41.6 L83.2,50.4 L79.6,50.4 L79.6,34.7 L83.2,34.7 L83.2,37.1 C84.2,35.7 85.6,34.4 88,34.4 C90.3,34.4 91.8,35.5 92.6,37.2 C93.9,35.5 95.5,34.4 97.9,34.4" id="Shape" fill="#231F20"></path>
            <path d="M63.2,44.7 C63.2,46.7 61.4,48 59.1,48 C57.4,48 56.1,47.2 56.1,45.7 L56.1,45.6 C56.1,44 57.4,43.1 59.7,43.1 C61.1,43.1 62.4,43.4 63.3,43.7 L63.2,44.7 Z M59.8,34.5 C57.9,34.5 56.5,34.8 55.1,35.3 L55.1,38.6 C56.4,38.1 57.6,37.7 59.3,37.7 C61.8,37.7 63.1,38.9 63.1,41 L63.1,41.4 C61.9,41 60.7,40.7 58.8,40.7 C55.2,40.7 52.5,42.4 52.5,45.7 L52.5,45.8 C52.5,48.9 55.1,50.6 58.1,50.6 C60.5,50.6 62.1,49.6 63.2,48.3 L63.2,50.2 L66.8,50.2 L66.8,40.9 C66.7,36.9 64.4,34.5 59.8,34.5 Z" id="Shape" fill="#231F20"></path>
            <path d="M35.2,44.7 C35.2,46.7 33.4,48 31.1,48 C29.4,48 28.1,47.2 28.1,45.7 L28.1,45.6 C28.1,44 29.4,43.1 31.7,43.1 C33.1,43.1 34.4,43.4 35.3,43.7 L35.2,44.7 Z M31.8,34.5 C29.8,34.5 28.3,34.8 26.9,35.4 L26.9,38.7 C28.3,38.1 29.6,37.8 31.3,37.8 C33.8,37.8 35.1,39 35.1,41.1 L35.1,41.5 C33.9,41.1 32.7,40.8 30.8,40.8 C27.2,40.8 24.5,42.5 24.5,45.8 L24.5,45.9 C24.5,49 27.1,50.7 30.1,50.7 C32.5,50.7 34.1,49.7 35.2,48.4 L35.2,50.3 L38.8,50.3 L38.8,41 C38.7,36.9 36.4,34.5 31.8,34.5 Z" id="Shape" fill="#231F20"></path>
        </g>
    </g>
</svg>