<?xml version="1.0" encoding="utf-8"?>
<!-- Generator: Adobe Illustrator 22.1.0, SVG Export Plug-In . SVG Version: 6.00 Build 0)  -->
<svg version="1.1" id="Layer_1" xmlns="http://www.w3.org/2000/svg" xmlns:xlink="http://www.w3.org/1999/xlink" x="0px" y="0px"
	 viewBox="0 0 218 51" style="enable-background:new 0 0 218 51;" xml:space="preserve">
<style type="text/css">
	.st0{fill:#F26122;}
	.st1{fill:#231F20;}
</style>
<g>
	<polygon class="st0" points="151.2,13.8 151.2,4.1 131.8,12.7 131.8,0.3 112.1,9.1 112.1,28.7 131.6,20.1 131.6,25.8 151,17.1 
		151,20.6 160.3,16.4 160.3,9.8 	"/>
	<polygon class="st1" points="74.4,45.4 77.6,34.7 81.2,34.7 76.1,50.5 72.9,50.5 69.4,39.8 65.9,50.5 62.7,50.5 57.6,34.7 
		61.3,34.7 64.4,45.4 67.9,34.6 70.9,34.6 	"/>
	<rect x="97.9" y="28.7" class="st1" width="3.6" height="21.6"/>
	<rect x="104.1" y="28.7" class="st1" width="3.6" height="21.6"/>
	<path class="st1" d="M129.2,50.3h-3.6V34.7h3.6v3.5c1-2.3,2.8-3.9,5.5-3.8v3.8h-0.2c-3.1,0-5.3,2-5.3,6.2V50.3z"/>
	<path class="st1" d="M154.9,34.4c3.4,0,5.5,2.2,5.5,6v10h-3.6v-8.9c0-2.5-1.2-3.8-3.2-3.8s-3.3,1.4-3.3,3.9v8.8h-3.6v-8.9
		c0-2.4-1.2-3.8-3.2-3.8s-3.3,1.5-3.3,3.9v8.8h-3.6V34.7h3.6v2.4c1-1.4,2.4-2.7,4.8-2.7c2.3,0,3.8,1.1,4.6,2.8
		C150.9,35.5,152.5,34.4,154.9,34.4"/>
	<path class="st1" d="M120.2,44.7c0,2-1.8,3.3-4.1,3.3c-1.7,0-3-0.8-3-2.3v-0.1c0-1.6,1.3-2.5,3.6-2.5c1.4,0,2.7,0.3,3.6,0.6
		L120.2,44.7L120.2,44.7z M116.8,34.5c-1.9,0-3.3,0.3-4.7,0.8v3.3c1.3-0.5,2.5-0.9,4.2-0.9c2.5,0,3.8,1.2,3.8,3.3v0.4
		c-1.2-0.4-2.4-0.7-4.3-0.7c-3.6,0-6.3,1.7-6.3,5v0.1c0,3.1,2.6,4.8,5.6,4.8c2.4,0,4-1,5.1-2.3v1.9h3.6v-9.3
		C123.7,36.9,121.4,34.5,116.8,34.5"/>
	<path class="st1" d="M92.2,44.7c0,2-1.8,3.3-4.1,3.3c-1.7,0-3-0.8-3-2.3v-0.1c0-1.6,1.3-2.5,3.6-2.5c1.4,0,2.7,0.3,3.6,0.6
		L92.2,44.7L92.2,44.7z M88.8,34.5c-2,0-3.5,0.3-4.9,0.9v3.3c1.4-0.6,2.7-0.9,4.4-0.9c2.5,0,3.8,1.2,3.8,3.3v0.4
		c-1.2-0.4-2.4-0.7-4.3-0.7c-3.6,0-6.3,1.7-6.3,5v0.1c0,3.1,2.6,4.8,5.6,4.8c2.4,0,4-1,5.1-2.3v1.9h3.6V41
		C95.7,36.9,93.4,34.5,88.8,34.5"/>
</g>
</svg>
