<svg id="Layer_1" data-name="Layer 1" xmlns="http://www.w3.org/2000/svg" viewBox="0 0 50 30"><defs><style>.cls-1{fill:#252f3e;}.cls-2{fill:#f90;fill-rule:evenodd;}</style></defs><title>AWS_logo_RGB</title><path class="cls-1" d="M14.08921,10.85265a4.70221,4.70221,0,0,0,.18916,1.48384,7.73365,7.73365,0,0,0,.53823,1.19305.774.774,0,0,1,.11642.37815.637.637,0,0,1-.32017.49472l-1.04741.69816a.8342.8342,0,0,1-.43643.14548.694.694,0,0,1-.49458-.23266,3.80377,3.80377,0,0,1-.59651-.77107q-.24744-.42132-.50917-.97467a6.145,6.145,0,0,1-4.888,2.29859,4.54305,4.54305,0,0,1-3.31693-1.19306,4.26725,4.26725,0,0,1-1.2221-3.20051A4.27923,4.27923,0,0,1,3.61479,7.75393,6.05584,6.05584,0,0,1,7.68818,6.45924a12.46979,12.46979,0,0,1,1.7602.13087q.91668.131,1.90583.36369v-1.222a3.655,3.655,0,0,0-.78553-2.66228,3.80847,3.80847,0,0,0-2.706-.771,7.71231,7.71231,0,0,0-1.78941.21821,12.77839,12.77839,0,0,0-1.78941.56738A4.54469,4.54469,0,0,1,3.702,3.3024a1.19394,1.19394,0,0,1-.26175.0436q-.34921,0-.34923-.52371V2.00763a1.08865,1.08865,0,0,1,.11642-.58191,1.19762,1.19762,0,0,1,.46549-.34917A10.8808,10.8808,0,0,1,5.7679.3201,10.18689,10.18689,0,0,1,8.35729,0a6.025,6.025,0,0,1,4.34988,1.353,5.48579,5.48579,0,0,1,1.382,4.08792ZM7.339,13.38407a5.35514,5.35514,0,0,0,1.71667-.30558,3.63051,3.63051,0,0,0,1.5712-1.062,2.62465,2.62465,0,0,0,.5673-1.062,5.62693,5.62693,0,0,0,.16009-1.44017V8.816a14.35044,14.35044,0,0,0-1.52752-.27634,12.36856,12.36856,0,0,0-1.5566-.1018,3.841,3.841,0,0,0-2.47313.6691,2.34358,2.34358,0,0,0-.81472,1.92028,2.3526,2.3526,0,0,0,.611,1.76035A2.39594,2.39594,0,0,0,7.339,13.38407Zm13.35492,1.80386a1.03313,1.03313,0,0,1-.64006-.1601,1.29862,1.29862,0,0,1-.34923-.65465L15.80589,1.513a2.94671,2.94671,0,0,1-.14548-.66918.36.36,0,0,1,.40722-.40738H17.6971a1.03006,1.03006,0,0,1,.65465.16,1.39544,1.39544,0,0,1,.33449.65465L21.47953,12.2493,24.06892,1.25109a1.16729,1.16729,0,0,1,.32017-.65465,1.09552,1.09552,0,0,1,.66912-.16h1.33836a1.09768,1.09768,0,0,1,.66927.16,1.17475,1.17475,0,0,1,.32.65465l2.6186,11.14369L32.885,1.25109a1.385,1.385,0,0,1,.33462-.65465,1.02763,1.02763,0,0,1,.65465-.16h1.542a.36019.36019,0,0,1,.40737.40738,1.36382,1.36382,0,0,1-.02906.26181,3.63891,3.63891,0,0,1-.11641.40737L31.663,14.37318a1.30468,1.30468,0,0,1-.34923.65465,1.034,1.034,0,0,1-.64.1601H29.248a1.02452,1.02452,0,0,1-.66927-.17454,1.25707,1.25707,0,0,1-.32-.66927L25.66918,3.637,23.10885,14.34412a1.26417,1.26417,0,0,1-.32.66927,1.026,1.026,0,0,1-.66925.17454Zm21.35621.43643a11.27983,11.27983,0,0,1-2.56048-.291,7.43922,7.43922,0,0,1-1.92028-.66926.96521.96521,0,0,1-.611-.931v-.84381q0-.52362.37829-.52362a.89832.89832,0,0,1,.30542.05812q.15951.05871.422.17454a8.771,8.771,0,0,0,1.83294.58192,9.77655,9.77655,0,0,0,1.97855.20377,4.48136,4.48136,0,0,0,2.42947-.55285,1.76348,1.76348,0,0,0,.85825-1.5712,1.60661,1.60661,0,0,0-.4509-1.16383,4.29322,4.29322,0,0,0-1.673-.87286l-2.415-.75646a5.15146,5.15146,0,0,1-2.66228-1.68761,3.9388,3.9388,0,0,1-.82919-2.41492,3.69531,3.69531,0,0,1,.451-1.84754,4.47028,4.47028,0,0,1,1.1929-1.36751A5.26534,5.26534,0,0,1,40.50794.291,7.39821,7.39821,0,0,1,42.60291,0a8.87378,8.87378,0,0,1,1.12017.07274q.56743.07295,1.07647.18915.50875.11655.9456.26181a4.27246,4.27246,0,0,1,.69833.291,1.5902,1.5902,0,0,1,.49471.40737.93611.93611,0,0,1,.14548.55285V2.5604q0,.52374-.37829.52378a1.759,1.759,0,0,1-.64006-.20368,7.73679,7.73679,0,0,0-3.20051-.64012,4.36575,4.36575,0,0,0-2.21139.4655,1.5971,1.5971,0,0,0-.78551,1.48392,1.57754,1.57754,0,0,0,.49456,1.17836,4.93525,4.93525,0,0,0,1.83309.91654l2.35671.75645A5.08169,5.08169,0,0,1,47.1272,8.64141a3.75621,3.75621,0,0,1,.77106,2.32765,4.2069,4.2069,0,0,1-.43643,1.93489,4.40493,4.40493,0,0,1-1.2075,1.46923,5.42839,5.42839,0,0,1-1.84754.93116A8.25029,8.25029,0,0,1,42.05008,15.62436Z"/><path class="cls-2" d="M45.19475,23.81206C39.72054,27.85184,31.7845,30,24.95055,30A36.63589,36.63589,0,0,1,.22136,20.56648C-.29111,20.10354.1659,19.4717.782,19.83a49.77575,49.77575,0,0,0,24.7437,6.56524,49.2264,49.2264,0,0,0,18.8734-3.86221C45.32432,22.14055,46.1003,23.14279,45.19475,23.81206Z"/><path class="cls-2" d="M47.47268,21.21128c-.70042-.89623-4.628-.42472-6.39286-.2132-.53459.06407-.6175-.40315-.13576-.74134,3.13378-2.20079,8.26791-1.56549,8.86475-.82846.6011.7431-.158,5.89088-3.0943,8.3474-.45184.37758-.88143.17614-.68114-.32268C46.69426,25.80276,48.1735,22.10837,47.47268,21.21128Z"/><path class="cls-1" d="M14.08921,10.85265a4.70221,4.70221,0,0,0,.18916,1.48384,7.73365,7.73365,0,0,0,.53823,1.19305.774.774,0,0,1,.11642.37815.637.637,0,0,1-.32017.49472l-1.04741.69816a.8342.8342,0,0,1-.43643.14548.694.694,0,0,1-.49458-.23266,3.80377,3.80377,0,0,1-.59651-.77107q-.24744-.42132-.50917-.97467a6.145,6.145,0,0,1-4.888,2.29859,4.54305,4.54305,0,0,1-3.31693-1.19306,4.26725,4.26725,0,0,1-1.2221-3.20051A4.27923,4.27923,0,0,1,3.61479,7.75393,6.05584,6.05584,0,0,1,7.68818,6.45924a12.46979,12.46979,0,0,1,1.7602.13087q.91668.131,1.90583.36369v-1.222a3.655,3.655,0,0,0-.78553-2.66228,3.80847,3.80847,0,0,0-2.706-.771,7.71231,7.71231,0,0,0-1.78941.21821,12.77839,12.77839,0,0,0-1.78941.56738A4.54469,4.54469,0,0,1,3.702,3.3024a1.19394,1.19394,0,0,1-.26175.0436q-.34921,0-.34923-.52371V2.00763a1.08865,1.08865,0,0,1,.11642-.58191,1.19762,1.19762,0,0,1,.46549-.34917A10.8808,10.8808,0,0,1,5.7679.3201,10.18689,10.18689,0,0,1,8.35729,0a6.025,6.025,0,0,1,4.34988,1.353,5.48579,5.48579,0,0,1,1.382,4.08792ZM7.339,13.38407a5.35514,5.35514,0,0,0,1.71667-.30558,3.63051,3.63051,0,0,0,1.5712-1.062,2.62465,2.62465,0,0,0,.5673-1.062,5.62693,5.62693,0,0,0,.16009-1.44017V8.816a14.35044,14.35044,0,0,0-1.52752-.27634,12.36856,12.36856,0,0,0-1.5566-.1018,3.841,3.841,0,0,0-2.47313.6691,2.34358,2.34358,0,0,0-.81472,1.92028,2.3526,2.3526,0,0,0,.611,1.76035A2.39594,2.39594,0,0,0,7.339,13.38407Zm13.35492,1.80386a1.03313,1.03313,0,0,1-.64006-.1601,1.29862,1.29862,0,0,1-.34923-.65465L15.80589,1.513a2.94671,2.94671,0,0,1-.14548-.66918.36.36,0,0,1,.40722-.40738H17.6971a1.03006,1.03006,0,0,1,.65465.16,1.39544,1.39544,0,0,1,.33449.65465L21.47953,12.2493,24.06892,1.25109a1.16729,1.16729,0,0,1,.32017-.65465,1.09552,1.09552,0,0,1,.66912-.16h1.33836a1.09768,1.09768,0,0,1,.66927.16,1.17475,1.17475,0,0,1,.32.65465l2.6186,11.14369L32.885,1.25109a1.385,1.385,0,0,1,.33462-.65465,1.02763,1.02763,0,0,1,.65465-.16h1.542a.36019.36019,0,0,1,.40737.40738,1.36382,1.36382,0,0,1-.02906.26181,3.63891,3.63891,0,0,1-.11641.40737L31.663,14.37318a1.30468,1.30468,0,0,1-.34923.65465,1.034,1.034,0,0,1-.64.1601H29.248a1.02452,1.02452,0,0,1-.66927-.17454,1.25707,1.25707,0,0,1-.32-.66927L25.66918,3.637,23.10885,14.34412a1.26417,1.26417,0,0,1-.32.66927,1.026,1.026,0,0,1-.66925.17454Zm21.35621.43643a11.27983,11.27983,0,0,1-2.56048-.291,7.43922,7.43922,0,0,1-1.92028-.66926.96521.96521,0,0,1-.611-.931v-.84381q0-.52362.37829-.52362a.89832.89832,0,0,1,.30542.05812q.15951.05871.422.17454a8.771,8.771,0,0,0,1.83294.58192,9.77655,9.77655,0,0,0,1.97855.20377,4.48136,4.48136,0,0,0,2.42947-.55285,1.76348,1.76348,0,0,0,.85825-1.5712,1.60661,1.60661,0,0,0-.4509-1.16383,4.29322,4.29322,0,0,0-1.673-.87286l-2.415-.75646a5.15146,5.15146,0,0,1-2.66228-1.68761,3.9388,3.9388,0,0,1-.82919-2.41492,3.69531,3.69531,0,0,1,.451-1.84754,4.47028,4.47028,0,0,1,1.1929-1.36751A5.26534,5.26534,0,0,1,40.50794.291,7.39821,7.39821,0,0,1,42.60291,0a8.87378,8.87378,0,0,1,1.12017.07274q.56743.07295,1.07647.18915.50875.11655.9456.26181a4.27246,4.27246,0,0,1,.69833.291,1.5902,1.5902,0,0,1,.49471.40737.93611.93611,0,0,1,.14548.55285V2.5604q0,.52374-.37829.52378a1.759,1.759,0,0,1-.64006-.20368,7.73679,7.73679,0,0,0-3.20051-.64012,4.36575,4.36575,0,0,0-2.21139.4655,1.5971,1.5971,0,0,0-.78551,1.48392,1.57754,1.57754,0,0,0,.49456,1.17836,4.93525,4.93525,0,0,0,1.83309.91654l2.35671.75645A5.08169,5.08169,0,0,1,47.1272,8.64141a3.75621,3.75621,0,0,1,.77106,2.32765,4.2069,4.2069,0,0,1-.43643,1.93489,4.40493,4.40493,0,0,1-1.2075,1.46923,5.42839,5.42839,0,0,1-1.84754.93116A8.25029,8.25029,0,0,1,42.05008,15.62436Z"/><path class="cls-2" d="M45.19475,23.81206C39.72054,27.85184,31.7845,30,24.95055,30A36.63589,36.63589,0,0,1,.22136,20.56648C-.29111,20.10354.1659,19.4717.782,19.83a49.77575,49.77575,0,0,0,24.7437,6.56524,49.2264,49.2264,0,0,0,18.8734-3.86221C45.32432,22.14055,46.1003,23.14279,45.19475,23.81206Z"/><path class="cls-2" d="M47.47268,21.21128c-.70042-.89623-4.628-.42472-6.39286-.2132-.53459.06407-.6175-.40315-.13576-.74134,3.13378-2.20079,8.26791-1.56549,8.86475-.82846.6011.7431-.158,5.89088-3.0943,8.3474-.45184.37758-.88143.17614-.68114-.32268C46.69426,25.80276,48.1735,22.10837,47.47268,21.21128Z"/></svg>