<?xml version="1.0" encoding="utf-8"?>
<!-- Generator: Adobe Illustrator 22.1.0, SVG Export Plug-In . SVG Version: 6.00 Build 0)  -->
<svg version="1.1" id="Layer_1" xmlns="http://www.w3.org/2000/svg" xmlns:xlink="http://www.w3.org/1999/xlink" x="0px" y="0px"
	 viewBox="0 0 125 151" style="enable-background:new 0 0 125 151;" xml:space="preserve">
<style type="text/css">
	.st0{fill:none;stroke:#00953B;stroke-width:3;stroke-linecap:round;stroke-miterlimit:10;}
	.st1{fill:none;stroke:#00953B;stroke-width:3;stroke-miterlimit:10;}
	.st2{fill:none;stroke:#00953B;stroke-width:2;stroke-linecap:round;stroke-linejoin:round;stroke-miterlimit:10;}
	.st3{fill:none;stroke:#00953B;stroke-width:3;stroke-linecap:round;stroke-linejoin:round;stroke-miterlimit:10;}
</style>
<g>
	<g>
		<path class="st0" d="M50.5,36.4c-4.1-2.5-6.9-7.8-6.9-14.1v-1.7v-6.6c0-9,6.4-12.4,12.1-12.4l0,0c5.7,0,12.1,3.5,12.1,12.4v6.6
			v1.7"/>
		<path class="st1" d="M48.7,35.2v2.8c0,1.7,0.8,4.1-8.6,6c-3.5,0.7-8.5,3.3-10.4,5.2c-1.7,1.7-3.1,3.9-3.1,6.6v6.5"/>
		<polyline class="st2" points="47,41.8 55.6,53.5 64.3,41.7 		"/>
	</g>
	<path class="st2" d="M43.6,15.5c10.4,0,10.4-6.9,17.3-6.9c6.4,0,6.9,6.1,6.9,6.1"/>
</g>
<path class="st0" d="M60.8,36.4c4.1-2.5,6.9-7.8,6.9-14.1"/>
<path class="st1" d="M98.5,62.4v76.4c0,5.8-4.7,10.5-10.5,10.5H37.1c-5.8,0-10.5-4.7-10.5-10.5V62.4"/>
<line class="st0" x1="13.9" y1="62.4" x2="111.1" y2="62.4"/>
<polyline class="st3" points="83.8,30.3 98.3,40 98.3,62.4 "/>
<circle class="st3" cx="79.3" cy="28" r="4.6"/>
<path class="st1" d="M62.6,35.2l0,2.7h0c0,1.7-0.8,4.1,8.6,6c3.5,0.7,8.5,3.3,10.4,5.2c1.7,1.7,3.1,3.9,3.1,6.6v6.5"/>
</svg>
