<?xml version="1.0" encoding="utf-8"?>
<!-- Generator: Adobe Illustrator 22.1.0, SVG Export Plug-In . SVG Version: 6.00 Build 0)  -->
<svg version="1.1" id="Layer_1" xmlns="http://www.w3.org/2000/svg" xmlns:xlink="http://www.w3.org/1999/xlink" x="0px" y="0px"
	 viewBox="0 0 156 62" style="enable-background:new 0 0 156 62;" xml:space="preserve">
<style type="text/css">
	.st0{fill:#FFFFFF;}
</style>
<g>
	<path class="st0" d="M34.5,1.5H48v36.9c0,0,0.5,5.7,4.4,8.6c0,0-3.4,4.1-11.1,1.1c0,0-6.2-1.8-6.8-13.2
		C34.5,34.9,34.5,1.5,34.5,1.5z"/>
	<path class="st0" d="M50.1,13.9H63v19.4c0,0,0.6,1.6,2.2,1.8c1.6,0.2,2.2-2,2.2-2V13.9h12.9v29.6c0,0,0.1,6.8-3.4,11.8
		c0,0-5.4,10-22.6,5.1l-0.1-11.7c0,0,11.4,4,13.5-3.1c0,0-2.6,3.6-9.8,1.7S50,39,50.2,36.4V13.9H50.1z"/>
	<path class="st0" d="M95.6,21.6h6.5v13h-6.5c0,0,0.6,14.5-12.7,13.5V17.4c0,0,0.4-17.2,16.9-17.2c14.9,0,17.2,13.7,17.2,13.7h4.5
		V27h-4.1c0,0-1.6,7.3,4.1,8.1v13c0,0-14.4-0.5-16.8-14.1V17.3c0,0-0.9-3.9-4.5-4.1c-3.5-0.2-4.7,3.4-4.7,3.4L95.6,21.6z"/>
</g>
</svg>
