<?xml version="1.0" encoding="utf-8"?>
<!-- Generator: Adobe Illustrator 22.1.0, SVG Export Plug-In . SVG Version: 6.00 Build 0)  -->
<svg version="1.1" id="Layer_1" xmlns="http://www.w3.org/2000/svg" xmlns:xlink="http://www.w3.org/1999/xlink" x="0px" y="0px"
	 viewBox="0 0 156 62" style="enable-background:new 0 0 156 62;" xml:space="preserve">
<style type="text/css">
	.st0{fill:#FFFFFF;}
</style>
<g>
	<path class="st0" d="M148,25.4c0,0-13.4,12.7-18.7,17.7h14.9c-0.5,2.5-1.1,5-1.6,7.4h-25.7l1.5-7.2c0,0,1.6-1.4,2.3-2.1
		C126,36,131.8,30.9,137,25.8h-14.9c0.5-2.5,1.1-4.9,1.5-7.4c8.5,0,25.7,0,25.7,0L148,25.4z"/>
	<path class="st0" d="M119.9,18.4c-0.5,2.5-1.1,4.9-1.5,7.4c-2.8-0.1-6,0-8.7,0c-0.9,3.4-1.5,7.5-2.4,11.2c-0.4,1.6-1,4.1-0.1,5.3
		c1.2,1.8,4.8,1.6,7.4,1.3c-0.4,2.3-1,4.5-1.4,6.8c-5.6,1.5-11.5-0.3-13.6-4.2c-1.3-2.4-1.1-6-0.5-9.1c1.6-8.8,3.9-17.7,5.5-26.3
		h8.3c-0.6,2.4-1,4.9-1.5,7.4c2.7,0.1,5.7,0,8.5,0C119.9,18.4,119.9,18.4,119.9,18.4"/>
	<path class="st0" d="M99.3,18.4c-0.5,2.5-1.1,4.9-1.5,7.4c-3.4-0.4-6.8,0.1-8.5,2.4c-1.6,3.1-2.3,7-3.1,10.8
		c-0.8,3.9-1.7,7.8-2.4,11.5h-8.2c0.8-3.8,1.7-7.8,2.5-11.8s1.5-8,2.8-11.5c1.2-3.4,3.6-6,6.6-7.7c2.9-1.6,7.6-2.5,11.7-1.2
		C99.2,18.4,99.3,18.4,99.3,18.4"/>
	<path class="st0" d="M58.4,25.5c-1.9,1.2-2.9,2.8-3.6,4.6c4.1,0.1,9,0,13.2,0C68.9,24.4,62.2,23,58.4,25.5 M74.6,36.8H53
		c-0.3,1.5-0.2,3.3,0.3,4.4c2.3,4.8,11.5,2.5,14.7,0.1c1.1,1.8,2.2,3.7,3.3,5.5c-2.3,1.7-5.2,3.1-8.6,3.8c-5.7,1.1-11.5,0.2-14.5-3
		c-2.8-3-3.7-8.3-2.8-13.2c1.3-7.3,5.2-13.1,11.6-15.5c5.4-2.1,12.2-0.8,15.5,2.6c1.6,1.6,2.7,4,2.9,7.3
		C75.6,31.8,75.2,34.3,74.6,36.8"/>
	<path class="st0" d="M45.9,11c-2.9,13.1-5.6,26.4-8.4,39.5h-8.2c0.9-4.6,1.9-9.1,2.9-13.7c-4.3-0.1-9.8-0.1-14.5,0
		c-1,4.5-1.9,9.2-2.9,13.7H6.6c2.7-13.2,5.6-26.3,8.3-39.5h8.3c-1.3,6.1-2.6,12.2-3.9,18.4c4.7,0.1,9.6,0,14.4,0
		c1.4-6.1,2.6-12.3,3.9-18.4C40.4,11,43.3,10.9,45.9,11"/>
</g>
</svg>
