<?xml version="1.0" encoding="utf-8"?>
<!-- Generator: Adobe Illustrator 22.1.0, SVG Export Plug-In . SVG Version: 6.00 Build 0)  -->
<svg version="1.1" id="Layer_1" xmlns="http://www.w3.org/2000/svg" xmlns:xlink="http://www.w3.org/1999/xlink" x="0px" y="0px"
	 viewBox="0 0 62 62" style="enable-background:new 0 0 62 62;" xml:space="preserve">
<style type="text/css">
	.st0{fill:none;stroke:#FFFFFF;stroke-miterlimit:10;}
	.st1{fill:none;stroke:#FFFFFF;stroke-width:2;stroke-miterlimit:10;}
	.st2{fill:none;stroke:#FFFFFF;stroke-width:2;stroke-linejoin:round;stroke-miterlimit:10;}
	.st3{fill:none;stroke:#FFFFFF;stroke-linejoin:round;stroke-miterlimit:10;}
	.st4{fill:none;stroke:#FFFFFF;stroke-linecap:round;stroke-miterlimit:10;}
</style>
<line class="st0" x1="17.1" y1="5.1" x2="13.5" y2="8.8"/>
<line class="st0" x1="21.8" y1="9.8" x2="16" y2="15.6"/>
<polyline class="st1" points="22.9,18 26.5,14.5 12.7,0.7 1.1,12.2 16,27.1 "/>
<line class="st0" x1="57.2" y1="45.1" x2="53.5" y2="48.8"/>
<line class="st0" x1="52.5" y1="40.4" x2="46.6" y2="46.3"/>
<polyline class="st1" points="44.3,39.3 47.8,35.8 61.6,49.6 50,61.1 35.2,46.2 "/>
<rect x="1.3" y="22.8" transform="matrix(0.7071 -0.7071 0.7071 0.7071 -12.7185 31.0499)" class="st2" width="59.7" height="16.2"/>
<path class="st1" d="M46.5,4.1c3.2-3.2,8.3-3.2,11.4,0c3.2,3.2,3.2,8.3,0,11.4"/>
<line class="st3" x1="19.7" y1="30.9" x2="31.1" y2="42.3"/>
<polyline class="st1" points="4.3,46.3 0.4,61.3 15.7,57.7 "/>
<line class="st4" x1="51" y1="8.6" x2="37.3" y2="22.4"/>
</svg>
