<?xml version="1.0" encoding="utf-8"?>
<!-- Generator: Adobe Illustrator 22.1.0, SVG Export Plug-In . SVG Version: 6.00 Build 0)  -->
<svg version="1.1" id="Layer_1" xmlns="http://www.w3.org/2000/svg" xmlns:xlink="http://www.w3.org/1999/xlink" x="0px" y="0px"
	 viewBox="0 0 62 62" style="enable-background:new 0 0 62 62;" xml:space="preserve">
<style type="text/css">
	.st0{fill:none;stroke:#FFFFFF;stroke-width:2;stroke-linecap:round;stroke-linejoin:round;stroke-miterlimit:10;}
</style>
<path class="st0" d="M57.3,61.3H4.7c-1.6,0-2.8-1.3-2.8-2.8V39.3c0-1.6,1.3-2.8,2.8-2.8h52.6c1.6,0,2.8,1.3,2.8,2.8v19.2
	C60.1,60.1,58.9,61.3,57.3,61.3z"/>
<g>
	<g>
		<path class="st0" d="M14.4,24.8v-8.9L11,11.3c-0.2-0.3-0.3-0.7-0.2-1.1l2.5-8.6c0.2-0.5,0.6-0.9,1.2-0.9h7.4c0.6,0,1,0.4,1.2,0.9
			l2.5,8.6c0.1,0.4,0,0.8-0.2,1.1l-3.5,4.6l0,8.9l0,0"/>
		<polyline class="st0" points="27,36.5 24.8,24.8 11.5,24.8 9.3,36.5 		"/>
		<line class="st0" x1="18.1" y1="30.7" x2="18.1" y2="36.5"/>
	</g>
	<g>
		<path class="st0" d="M51.6,12c0-0.5-2.4-1-3.8-1h-9c-0.3,0-0.6-0.1-0.8-0.3c-0.8-0.9-2.2-0.9-3,0c-0.2,0.2-0.5,0.3-0.8,0.3h-2.9
			c-0.6,0-1-0.5-1-1V1.7c0-0.6,0.5-1,1-1h2.2c0.4,0,0.8,0.3,1,0.7c0.3,0.8,1.1,1.4,1.9,1.4s1.6-0.6,1.9-1.4c0.1-0.4,0.5-0.7,1-0.7
			h8.4c2.5,0,7.8,3.9,7.8,11.9c0,0.6-0.5,1-1,1h-1.9C52,13.6,51.6,12.5,51.6,12z"/>
		<line class="st0" x1="46.6" y1="12.2" x2="46.6" y2="35.6"/>
		<line class="st0" x1="40.2" y1="12.2" x2="40.2" y2="35.6"/>
	</g>
</g>
</svg>
