<?xml version="1.0" encoding="utf-8"?>
<!-- Generator: Adobe Illustrator 22.1.0, SVG Export Plug-In . SVG Version: 6.00 Build 0)  -->
<svg version="1.1" id="Layer_1" xmlns="http://www.w3.org/2000/svg" xmlns:xlink="http://www.w3.org/1999/xlink" x="0px" y="0px"
	 viewBox="0 0 125 151" style="enable-background:new 0 0 125 151;" xml:space="preserve">
<style type="text/css">
	.st0{fill:none;stroke:#00953B;stroke-width:1.8803;stroke-miterlimit:10;}
	.st1{fill:none;stroke:#00953B;stroke-width:2;stroke-linecap:round;stroke-linejoin:round;stroke-miterlimit:10;}
	.st2{fill:none;stroke:#00953B;stroke-width:3;stroke-linecap:round;stroke-linejoin:round;stroke-miterlimit:10;}
</style>
<g>
	<g>
		<path class="st0" d="M6.1,13.5c0-1.1-0.9-1.9-1.9-1.9H2.3c-0.9,0-1.9-0.9-1.9-1.9v-1c0-1.1,0.9-1.9,1.9-1.9h120.3
			c1.1,0,1.9,0.9,1.9,1.9v0.9c0,0.9-0.8,1.9-1.9,1.9h-1.9c-1.1,0-1.9,0.8-1.9,1.9v78.4c0,0.9,0.8,1.9,1.9,1.9h1.9
			c1.1,0,1.9,0.9,1.9,1.9v0.9c0,0.9-0.8,1.9-1.9,1.9H2.3c-0.9,0-1.9-0.9-1.9-1.9v-0.9c0-0.9,0.9-1.9,1.9-1.9h1.9
			c0.9,0,1.9-0.9,1.9-1.9V13.5z"/>
	</g>
	<g>
		<path class="st1" d="M94.1,56.9v-8.6l-4.9-1.9c-1.9-0.6-3.2-2.1-3.9-3.8l0,0c-0.8-1.7-0.8-3.8,0.2-5.5l2.1-4.5l-6.2-6.2l-4.5,2.3
			c-1.7,0.8-3.8,0.9-5.5,0.2l0,0c-1.7-0.8-3.2-2.3-3.8-3.9l-1.7-4.7h-8.6L55.6,25c-0.6,1.9-2.1,3.2-3.8,3.9l0,0
			c-1.7,0.8-3.8,0.8-5.5-0.2l-4.5-2.1l-6.2,6.2l2.3,4.5c0.8,1.7,0.9,3.8,0.2,5.5l0,0c-0.8,1.7-2.3,3.2-3.9,3.8l-4.7,1.7v8.6l4.7,1.7
			c1.9,0.6,3.2,2.1,3.9,3.8l0,0c0.8,1.7,0.8,3.8-0.2,5.5l-2.3,4.9l6.2,6.2l4.5-2.3c1.7-0.8,3.8-0.9,5.5-0.2l0,0
			c1.7,0.8,3.2,2.3,3.8,3.9l1.7,4.7h8.6l1.7-4.7c0.6-1.9,2.1-3.2,3.8-3.9l0,0c1.7-0.8,3.8-0.8,5.5,0.2l4.5,2.1l6.2-6.2l-2.3-4.5
			c-0.8-1.7-0.9-3.8-0.2-5.5l0,0c0.8-1.7,2.3-3.2,3.9-3.8L94.1,56.9z"/>
	</g>
	<g>
		<path class="st2" d="M124.5,9.7c0,0.9-0.8,1.9-1.9,1.9H2.3c-0.9,0-1.9-0.9-1.9-1.9v-1c0-1.1,0.9-1.9,1.9-1.9h120.3
			c1.1,0,1.9,0.9,1.9,1.9C124.5,8.7,124.5,9.7,124.5,9.7z"/>
	</g>
	<g>
		<path class="st2" d="M124.5,96.6c0,0.9-0.8,1.9-1.9,1.9H2.3c-0.9,0-1.9-0.9-1.9-1.9v-0.9c0-0.9,0.9-1.9,1.9-1.9h120.3
			c1.1,0,1.9,0.9,1.9,1.9C124.5,95.7,124.5,96.6,124.5,96.6z"/>
	</g>
	<line class="st2" x1="62.5" y1="98.4" x2="16.8" y2="144.1"/>
	<line class="st2" x1="62.5" y1="98.4" x2="108.2" y2="144.1"/>
	<circle class="st1" cx="62.5" cy="52.6" r="15.8"/>
	<line class="st2" x1="118.9" y1="11.6" x2="118.9" y2="93.7"/>
	<line class="st2" x1="6.1" y1="11.6" x2="6.1" y2="93.7"/>
</g>
</svg>
