<?xml version="1.0" encoding="utf-8"?>
<!-- Generator: Adobe Illustrator 22.1.0, SVG Export Plug-In . SVG Version: 6.00 Build 0)  -->
<svg version="1.1" id="Layer_1" xmlns="http://www.w3.org/2000/svg" xmlns:xlink="http://www.w3.org/1999/xlink" x="0px" y="0px"
	 viewBox="0 0 156 62" style="enable-background:new 0 0 156 62;" xml:space="preserve">
<style type="text/css">
	.st0{fill-rule:evenodd;clip-rule:evenodd;fill:#FFFFFF;}
</style>
<g>
	<path class="st0" d="M86,16.8c-2.7,0-4.6,2.2-4.6,5v27.4h8.8V26.3c0-1,0.1-1.9,1.3-1.9h8.9v-7.6H86L86,16.8z"/>
	<path class="st0" d="M4.8,16.8c-2.7,0-4.6,2.2-4.6,5v27.4h9.5v-23c0-1,0.2-1.8,1.4-1.8c1.5,0,3,0,4.5,0c1.2,0,1.4,0.8,1.4,1.8v23
		h5.5H27V26.2c0-1,0.2-1.7,1.4-1.7c1.5,0,2.9,0,4.4,0c1.2,0,1.4,0.8,1.4,1.8v23h9.5V21.8c0-2.8-1.9-5-4.6-5c-4.4,0-8.7,0-13.1,0
		c-1.8,0-3.1,0.8-4,2.3c-0.9-1.5-2.2-2.3-4-2.3H4.8L4.8,16.8z"/>
	<path class="st0" d="M151.2,16.8c2.7,0,4.6,2.2,4.6,5v27.4h-24.4c-5.6,0-9.7-4.2-9.7-9.8c0-5.6,4.2-9.8,9.7-9.8H147v-3.2
		c0-1-0.3-2-1.6-2h-22.1v-7.6H151.2L151.2,16.8z M147,41.9v-5.1h-15c-1.4,0-2.5,1.1-2.5,2.5c0,1.4,1.1,2.5,2.5,2.5H147L147,41.9z"/>
	<path class="st0" d="M74.4,16.8c2.7,0,4.6,2.2,4.6,5v27.4H54.6c-5.6,0-9.7-4.2-9.7-9.8c0-5.6,4.2-9.8,9.7-9.8h15.6v-3.2
		c0-1-0.3-2-1.6-2H46.4v-7.6H74.4L74.4,16.8z M70.2,41.9v-5.1h-15c-1.4,0-2.5,1.1-2.5,2.5c0,1.4,1.1,2.5,2.5,2.5H70.2L70.2,41.9z"/>
	<path class="st0" d="M106.8,49.2c-2.9,0-4.6-2.2-4.6-5V12.8h8.8v4h10.2v7.6h-10.2v15.3c0,1,0.3,1.9,1.6,1.9h8.6v7.6H106.8
		L106.8,49.2z"/>
</g>
</svg>
