<?xml version="1.0" encoding="utf-8"?>
<!-- Generator: Adobe Illustrator 22.1.0, SVG Export Plug-In . SVG Version: 6.00 Build 0)  -->
<svg version="1.1" id="Layer_1" xmlns="http://www.w3.org/2000/svg" xmlns:xlink="http://www.w3.org/1999/xlink" x="0px" y="0px"
	 viewBox="0 0 888.7 150.4" style="enable-background:new 0 0 888.7 150.4;" xml:space="preserve">
<style type="text/css">
	.st0{fill:#4FD928;}
</style>
<g>
	<g>
		<path class="st0" d="M222.2,106h-42.2l13.5-71.2h41.6c18.6,0,31.6,4.3,38.6,12.9c5,6,6.7,14,5,23C275.5,87.8,258.9,106,222.2,106z
			 M206.2,86.8h18c18.1,0,27.9-5.4,30.1-16.6c0.8-4.3,0.2-7.6-1.8-10.1c-3.2-3.9-10.5-5.9-21.5-5.9h-18.5L206.2,86.8z"/>
	</g>
	<g>
		<path class="st0" d="M303.2,106h-22.6l13.5-71.2h22.6L303.2,106z"/>
	</g>
	<g>
		<path class="st0" d="M412.9,106h-26.1l-5.3-15.2h-38.1L332.2,106h-25.8l52.3-71.3h29L412.9,106z M354.9,74.1h21.4l-6.3-20h-0.9
			L354.9,74.1z"/>
	</g>
	<g>
		<path class="st0" d="M526,106h-22.4l8.2-42.8L477.1,106h-11.8l-18.2-43.3l-8.2,43.3h-22.3L430,34.8h30.4l16.9,40l32.1-40h30
			L526,106z"/>
	</g>
	<g>
		<path class="st0" d="M636,106h-26.1l-5.3-15.2h-38.1L555.3,106h-25.8l52.3-71.3h29L636,106z M578,74.1h21.4l-6.3-20h-0.9L578,74.1
			z"/>
	</g>
	<g>
		<path class="st0" d="M729.4,106h-24.2l-34.5-45.1l-8.6,45.1h-22.5l13.5-71.2h27.3l32.1,42.3l8-42.3h22.4L729.4,106z"/>
	</g>
	<g>
		<path class="st0" d="M792.1,106h-22.7l9.9-51.8h-33.3l3.7-19.4H839l-3.7,19.4h-33.4L792.1,106z"/>
	</g>
	<g>
		<path class="st0" d="M854.6,106H832l13.5-71.2h22.6L854.6,106z"/>
	</g>
	<g>
		<path class="st0" d="M97.6,137.2L26.2,48.7l25.1-31.2h61.3L137,47.4L97.2,96.6L85.5,82l27.5-34l-9.1-11.7H59.8l-10,12.4L97.6,108
			l47.8-59.3l-25-31.2h23.3L169,48.7L97.6,137.2z"/>
	</g>
</g>
</svg>
