<?xml version="1.0" encoding="utf-8"?>
<!-- Generator: Adobe Illustrator 22.1.0, SVG Export Plug-In . SVG Version: 6.00 Build 0)  -->
<svg version="1.1" id="Layer_1" xmlns="http://www.w3.org/2000/svg" xmlns:xlink="http://www.w3.org/1999/xlink" x="0px" y="0px"
	 viewBox="0 0 432 110" style="enable-background:new 0 0 432 110;" xml:space="preserve">
<style type="text/css">
	.st0{fill:#21205E;}
	.st1{fill:#7853A2;}
	.st2{fill:#7852A1;}
	.st3{fill:#26225B;}
	.st4{fill:#5F67AF;}
</style>
<g id="XMLID_56_">
	<g id="XMLID_40_">
		<path id="XMLID_55_" class="st0" d="M133.2,18.6c0-1.8-1.5-3.2-3.2-3.2h-2.5c-1.8,0-3.2,1.4-3.2,3.2v53.1c0,1.8,1.4,3.2,3.2,3.2
			h2.5c1.7,0,3.2-1.4,3.2-3.2V18.6z"/>
		<path id="XMLID_52_" class="st0" d="M149.8,24.2c4.7,0,6.6,2.8,6.6,8.7v24.5c0,5.9-1.9,8.7-6.6,8.7h-3.4v-42H149.8z M149.8,74.9
			c10.6,0,15.5-6,15.5-17.5V32.9c0-11.5-4.9-17.5-15.5-17.5h-9c-1.8,0-3.2,1.4-3.2,3.2v53.1c0,1.8,1.4,3.2,3.2,3.2H149.8z"/>
		<path id="XMLID_51_" class="st0" d="M173.7,15.4c-1.8,0-3.2,1.4-3.2,3.2v53.1c0,1.8,1.4,3.2,3.2,3.2h2.5c1.7,0,3.2-1.4,3.2-3.2
			V49.5h9.9c1.8,0,3.2-1.4,3.2-3.2V44c0-1.8-1.4-3.2-3.2-3.2h-9.9V24.2h13.4c1.8,0,3.2-1.4,3.2-3.2v-2.4c0-1.8-1.4-3.2-3.2-3.2
			H173.7z"/>
		<path id="XMLID_50_" class="st0" d="M200.5,57.6c0,7,1.9,11,4.7,13.8c2.9,2.8,6.5,3.5,9.9,3.5c3.2,0,6.9-0.7,9.8-3.5
			c2.7-2.7,4.6-6.8,4.6-13.8v-1.2c0-1.8-1.4-3.2-3.1-3.2h-2.6c-1.8,0-3.2,1.4-3.2,3.2v1.2c0,3.2-0.4,5.6-1.5,7
			c-0.8,0.9-2.4,1.6-4.1,1.6c-3.8,0-5.6-2.6-5.6-8.6v-25c0-5.9,1.9-8.5,5.6-8.5c3.6,0,5.6,2.6,5.6,8.5v1.2c0,1.8,1.4,3.2,3.2,3.2
			h2.6c1.7,0,3.1-1.4,3.1-3.2v-1.2c0-6.7-1.9-11.1-4.7-13.8c-2.9-2.6-6.4-3.4-9.7-3.4c-3.4,0-6.9,0.8-9.8,3.4
			c-2.8,2.6-4.8,7.1-4.8,13.8V57.6z"/>
		<path id="XMLID_47_" class="st0" d="M242.5,32.7c0-5.7,1.8-8.5,5.7-8.5c3.8,0,5.6,2.6,5.6,8.5v25c0,6-1.9,8.6-5.6,8.6
			c-3.8,0-5.7-2.7-5.7-8.6V32.7z M233.7,57.6c0,7,1.9,11,4.7,13.8c2.9,2.8,6.6,3.5,9.8,3.5c3.3,0,7-0.7,9.9-3.5
			c2.7-2.7,4.6-6.8,4.6-13.8v-25c0-11.2-4.8-17.2-14.5-17.2c-9.6,0-14.5,6.1-14.5,17.2V57.6z"/>
		<path id="XMLID_46_" class="st0" d="M293.8,74.9c1.8,0,3.2-1.4,3.2-3.2V18.6c0-1.8-1.4-3.2-3.2-3.2h-2.5c-1.8,0-3.2,1.4-3.2,3.2
			v29.1l-12.3-30.4c-0.4-1-1.8-1.9-2.9-1.9h-2.1c-1.7,0-3.2,1.4-3.2,3.2v53.1c0,1.8,1.5,3.2,3.2,3.2h2.6c1.7,0,3.2-1.4,3.2-3.2V42.6
			L288.9,73c0.4,1,1.9,1.9,2.9,1.9H293.8z"/>
		<path id="XMLID_45_" class="st0" d="M328.2,74.9c1.8,0,3.2-1.4,3.2-3.2V18.6c0-1.8-1.4-3.2-3.2-3.2h-2.5c-1.8,0-3.2,1.4-3.2,3.2
			v29.1l-12.3-30.4c-0.4-1-1.8-1.9-2.9-1.9h-2.1c-1.7,0-3.2,1.4-3.2,3.2v53.1c0,1.8,1.5,3.2,3.2,3.2h2.6c1.7,0,3.2-1.4,3.2-3.2V42.6
			L323.3,73c0.4,1,1.9,1.9,2.9,1.9H328.2z"/>
		<path id="XMLID_44_" class="st0" d="M339.7,15.4c-1.8,0-3.2,1.4-3.2,3.2v53.1c0,1.8,1.4,3.2,3.2,3.2h19.1c1.8,0,3.2-1.4,3.2-3.2
			v-2.4c0-1.8-1.4-3.2-3.2-3.2h-13.5V49.5h11.1c1.8,0,3.2-1.4,3.2-3.2V44c0-1.8-1.4-3.2-3.2-3.2h-11.1V24.2h13.5
			c1.8,0,3.2-1.4,3.2-3.2v-2.4c0-1.8-1.4-3.2-3.2-3.2H339.7z"/>
		<path id="XMLID_43_" class="st0" d="M365.8,57.6c0,7,1.9,11,4.7,13.8c2.9,2.8,6.5,3.5,9.9,3.5c3.2,0,6.9-0.7,9.8-3.5
			c2.7-2.7,4.6-6.8,4.6-13.8v-1.2c0-1.8-1.4-3.2-3.1-3.2h-2.6c-1.8,0-3.2,1.4-3.2,3.2v1.2c0,3.2-0.4,5.6-1.5,7
			c-0.8,0.9-2.4,1.6-4.1,1.6c-3.8,0-5.6-2.6-5.6-8.6v-25c0-5.9,1.9-8.5,5.6-8.5c3.6,0,5.6,2.6,5.6,8.5v1.2c0,1.8,1.4,3.2,3.2,3.2
			h2.6c1.7,0,3.1-1.4,3.1-3.2v-1.2c0-6.7-1.9-11.1-4.7-13.8c-2.9-2.6-6.4-3.4-9.7-3.4c-3.4,0-6.9,0.8-9.8,3.4
			c-2.8,2.6-4.8,7.1-4.8,13.8V57.6z"/>
		<path id="XMLID_42_" class="st0" d="M395.8,21c0,1.8,1.4,3.2,3.2,3.2h7.2v47.5c0,1.8,1.4,3.2,3.2,3.2h2.4c1.8,0,3.2-1.4,3.2-3.2
			V24.2h7.2c1.8,0,3.2-1.4,3.2-3.2v-2.5c0-1.8-1.4-3.2-3.2-3.2H399c-1.8,0-3.2,1.4-3.2,3.2V21z"/>
	</g>
	<polygon id="XMLID_39_" class="st1" points="261.2,82.7 262.9,82.7 264.3,88.6 265.9,82.7 267.4,82.7 269.1,88.6 270.4,82.7 
		272.1,82.7 270.1,92 268.4,92 266.6,85.9 265,92 263.3,92 	"/>
	<polygon id="XMLID_38_" class="st1" points="272.8,82.7 274.6,82.7 275.9,88.6 277.6,82.7 279,82.7 280.7,88.6 282,82.7 
		283.8,82.7 281.7,92 280,92 278.3,85.9 276.6,92 274.9,92 	"/>
	<polygon id="XMLID_37_" class="st1" points="284.5,82.7 286.2,82.7 287.5,88.6 289.2,82.7 290.7,82.7 292.4,88.6 293.7,82.7 
		295.4,82.7 293.3,92 291.6,92 289.9,85.9 288.2,92 286.6,92 	"/>
	<g id="XMLID_34_">
		<path id="XMLID_36_" class="st1" d="M297.6,90.2c0.3,0,0.5,0.1,0.7,0.3c0.2,0.2,0.3,0.4,0.3,0.7c0,0.3-0.1,0.5-0.3,0.7
			c-0.2,0.2-0.4,0.3-0.7,0.3c-0.3,0-0.5-0.1-0.7-0.3c-0.2-0.2-0.3-0.4-0.3-0.7c0-0.3,0.1-0.5,0.3-0.7S297.3,90.2,297.6,90.2"/>
	</g>
	<rect id="XMLID_33_" x="300.3" y="82.7" class="st1" width="1.8" height="9.3"/>
	<g id="XMLID_28_">
		<path id="XMLID_30_" class="st1" d="M305.8,84.4v5.9h0.8c0.8,0,1.4-0.1,1.8-0.3c0.4-0.2,0.7-0.5,0.9-0.9c0.2-0.4,0.3-1,0.3-1.6
			c0-1-0.3-1.8-0.8-2.3c-0.5-0.5-1.3-0.7-2.4-0.7H305.8z M304.1,82.7h2.1c1.4,0,2.4,0.2,3,0.5c0.7,0.3,1.2,0.9,1.6,1.6
			c0.4,0.8,0.6,1.6,0.6,2.6c0,0.7-0.1,1.4-0.4,2c-0.2,0.6-0.6,1.1-1,1.5c-0.4,0.4-0.9,0.7-1.4,0.8c-0.5,0.2-1.3,0.2-2.5,0.2h-2.1
			V82.7z"/>
	</g>
	<polygon id="XMLID_27_" class="st1" points="313.1,82.7 317.7,82.7 317.7,84.4 314.9,84.4 314.9,86.1 317.7,86.1 317.7,87.8 
		314.9,87.8 314.9,92 313.1,92 	"/>
	<g id="XMLID_21_">
		<path id="XMLID_26_" class="st1" d="M327.9,84.3l-1.2,1.2c-0.8-0.9-1.8-1.3-2.8-1.3c-0.9,0-1.6,0.3-2.2,0.9
			c-0.6,0.6-0.9,1.4-0.9,2.2c0,0.6,0.1,1.2,0.4,1.6c0.3,0.5,0.7,0.9,1.1,1.1c0.5,0.3,1,0.4,1.6,0.4c0.5,0,1-0.1,1.4-0.3
			c0.4-0.2,0.9-0.5,1.4-1l1.2,1.3c-0.7,0.7-1.3,1.1-1.9,1.4c-0.6,0.3-1.3,0.4-2.1,0.4c-1.4,0-2.6-0.5-3.5-1.4s-1.4-2.1-1.4-3.5
			c0-0.9,0.2-1.8,0.6-2.5c0.4-0.7,1-1.3,1.8-1.7c0.8-0.4,1.6-0.7,2.5-0.7c0.8,0,1.5,0.2,2.2,0.5C326.7,83.2,327.3,83.7,327.9,84.3"
			/>
		<path id="XMLID_23_" class="st1" d="M333.8,84.2c-0.9,0-1.6,0.3-2.2,0.9c-0.6,0.6-0.9,1.4-0.9,2.3c0,1,0.4,1.8,1.1,2.4
			c0.6,0.5,1.2,0.7,2,0.7c0.8,0,1.6-0.3,2.1-0.9c0.6-0.6,0.9-1.4,0.9-2.2c0-0.9-0.3-1.6-0.9-2.2C335.3,84.5,334.6,84.2,333.8,84.2
			 M333.8,82.4c1.3,0,2.4,0.5,3.4,1.4c0.9,1,1.4,2.1,1.4,3.5c0,1.4-0.5,2.5-1.4,3.4c-0.9,0.9-2.1,1.4-3.4,1.4
			c-1.4,0-2.6-0.5-3.5-1.4s-1.4-2.1-1.4-3.4c0-0.9,0.2-1.7,0.6-2.5c0.4-0.7,1-1.3,1.8-1.8C332.1,82.6,332.9,82.4,333.8,82.4"/>
	</g>
	<polygon id="XMLID_20_" class="st1" points="340.3,82.7 342,82.7 346,88.8 346,82.7 347.7,82.7 347.7,92 346,92 342,85.9 342,92 
		340.3,92 	"/>
	<polygon id="XMLID_19_" class="st1" points="349.8,82.7 351.5,82.7 355.5,88.8 355.5,82.7 357.3,82.7 357.3,92 355.6,92 
		351.6,85.9 351.6,92 349.8,92 	"/>
	<polygon id="XMLID_18_" class="st1" points="359.4,82.7 364.5,82.7 364.5,84.4 361.2,84.4 361.2,86.1 364.5,86.1 364.5,87.8 
		361.2,87.8 361.2,90.2 364.5,90.2 364.5,92 359.4,92 	"/>
	<g id="XMLID_15_">
		<path id="XMLID_17_" class="st1" d="M374.7,84.3l-1.2,1.2c-0.8-0.9-1.8-1.3-2.8-1.3c-0.9,0-1.6,0.3-2.2,0.9
			c-0.6,0.6-0.9,1.4-0.9,2.2c0,0.6,0.1,1.2,0.4,1.6c0.3,0.5,0.7,0.9,1.1,1.1c0.5,0.3,1,0.4,1.6,0.4c0.5,0,1-0.1,1.4-0.3
			c0.4-0.2,0.9-0.5,1.4-1l1.2,1.3c-0.7,0.7-1.3,1.1-1.9,1.4c-0.6,0.3-1.3,0.4-2.1,0.4c-1.4,0-2.6-0.5-3.5-1.4
			c-0.9-0.9-1.4-2.1-1.4-3.5c0-0.9,0.2-1.8,0.6-2.5c0.4-0.7,1-1.3,1.8-1.7c0.8-0.4,1.6-0.7,2.5-0.7c0.8,0,1.5,0.2,2.2,0.5
			C373.5,83.2,374.2,83.7,374.7,84.3"/>
	</g>
	<polygon id="XMLID_14_" class="st1" points="375.3,82.7 380.4,82.7 380.4,84.4 378.7,84.4 378.7,92 377,92 377,84.4 375.3,84.4 	
		"/>
	<g id="XMLID_7_">
		<path id="XMLID_13_" class="st1" d="M382.4,90.2c0.3,0,0.5,0.1,0.7,0.3s0.3,0.4,0.3,0.7c0,0.3-0.1,0.5-0.3,0.7
			c-0.2,0.2-0.4,0.3-0.7,0.3s-0.5-0.1-0.7-0.3c-0.2-0.2-0.3-0.4-0.3-0.7c0-0.3,0.1-0.5,0.3-0.7C381.9,90.2,382.1,90.2,382.4,90.2"/>
		<path id="XMLID_12_" class="st1" d="M393.8,84.3l-1.2,1.2c-0.8-0.9-1.8-1.3-2.8-1.3c-0.9,0-1.6,0.3-2.2,0.9
			c-0.6,0.6-0.9,1.4-0.9,2.2c0,0.6,0.1,1.2,0.4,1.6c0.3,0.5,0.6,0.9,1.1,1.1c0.5,0.3,1,0.4,1.6,0.4c0.5,0,1-0.1,1.4-0.3
			c0.4-0.2,0.9-0.5,1.4-1l1.2,1.3c-0.7,0.7-1.3,1.1-1.9,1.4c-0.6,0.3-1.3,0.4-2.1,0.4c-1.4,0-2.6-0.5-3.5-1.4
			c-0.9-0.9-1.4-2.1-1.4-3.5c0-0.9,0.2-1.8,0.6-2.5c0.4-0.7,1-1.3,1.8-1.7s1.6-0.7,2.5-0.7c0.8,0,1.5,0.2,2.2,0.5
			C392.7,83.2,393.3,83.7,393.8,84.3"/>
		<path id="XMLID_9_" class="st1" d="M399.7,84.2c-0.9,0-1.6,0.3-2.2,0.9c-0.6,0.6-0.9,1.4-0.9,2.3c0,1,0.4,1.8,1.1,2.4
			c0.6,0.5,1.2,0.7,2,0.7c0.8,0,1.6-0.3,2.1-0.9c0.6-0.6,0.9-1.4,0.9-2.2c0-0.9-0.3-1.6-0.9-2.2C401.3,84.5,400.6,84.2,399.7,84.2
			 M399.7,82.4c1.3,0,2.4,0.5,3.4,1.4s1.4,2.1,1.4,3.5c0,1.4-0.5,2.5-1.4,3.4c-0.9,0.9-2.1,1.4-3.4,1.4c-1.4,0-2.6-0.5-3.5-1.4
			s-1.4-2.1-1.4-3.4c0-0.9,0.2-1.7,0.6-2.5c0.4-0.7,1-1.3,1.8-1.8C398.1,82.6,398.9,82.4,399.7,82.4"/>
	</g>
	<polygon id="XMLID_6_" class="st1" points="407.1,82.7 408.8,82.7 411,89.1 413.2,82.7 414.9,82.7 416.4,92 414.7,92 413.7,86.1 
		411.8,92 410.2,92 408.3,86.1 407.2,92 405.5,92 	"/>
</g>
<g id="XMLID_72_">
	<polygon id="XMLID_75_" class="st2" points="50.9,5.4 41.5,22.6 62.2,22.6 74.5,45 65.3,60.6 74.6,77.5 94.1,77.5 103.4,61.1 
		72.1,5.4 	"/>
	<polygon id="XMLID_74_" class="st3" points="96.4,82.6 70.6,82.6 61.6,66.7 42.8,66.7 32.7,83.6 42.4,99.9 106.3,100 116.7,81.5 
		106.4,64.9 	"/>
	<polygon id="XMLID_73_" class="st4" points="39.7,27.3 6.3,81.4 16.6,100 36.1,100 26.1,81.7 39.9,60.6 57.8,60.6 68,44.2 
		58.7,27.3 	"/>
</g>
</svg>
