<?xml version="1.0" encoding="utf-8"?>
<!-- Generator: Adobe Illustrator 22.1.0, SVG Export Plug-In . SVG Version: 6.00 Build 0)  -->
<svg version="1.1" id="Layer_1" xmlns="http://www.w3.org/2000/svg" xmlns:xlink="http://www.w3.org/1999/xlink" x="0px" y="0px"
	 viewBox="0 0 202 71.9" style="enable-background:new 0 0 202 71.9;" xml:space="preserve">
<style type="text/css">
	.st0{fill:#0076BE;}
</style>
<g>
	<path class="st0" d="M26.6,35.9v-7.5c-1.7,1.8-2.8,4.4-2.8,7.5c0,6.9,5.3,12,12,12c2.9,0,5.5-1,7.4-2.6v-3.2
		c-1.6,1.7-4.3,3.3-7.4,3.3C30.6,45.4,26.6,41.3,26.6,35.9z"/>
	<path class="st0" d="M35.7,24.1c-2.9,0-5.5,1-7.4,2.6v3.2c1.6-1.7,4.2-3.3,7.4-3.3c5.2,0,9.2,4.1,9.2,9.5v7.5
		c1.7-1.8,2.8-4.4,2.8-7.5C47.7,29.2,42.4,24.1,35.7,24.1z"/>
	<path class="st0" d="M63.9,24.5h-8.1v23.1h2.7V26.8h5.3c3,0,4.6,1.9,4.6,4.3c0,2.5-1.6,4.3-4.6,4.3h-3.6v2.4h3.7
		c4.5,0,7.4-2.8,7.4-6.7C71.2,27.3,68.4,24.5,63.9,24.5z"/>
	<path class="st0" d="M79.1,41.5l-2,1.5c1.8,3,4.9,5,8.4,5c1.1,0,2.1-0.2,3-0.5v-2.6c-0.9,0.3-2,0.5-2.9,0.5
		C82.6,45.4,80.5,43.6,79.1,41.5z"/>
	<path class="st0" d="M87.7,35.1l-2.6-1.2c-2.1-1-3.7-1.8-3.7-4.2v-4.3c-1.7,1-2.8,2.7-2.8,4.9c0,3.3,2.5,4.9,5.2,6.2l2.6,1.2
		c2.3,1.1,3.8,1.9,3.8,4.4v4.7c1.7-1.1,2.8-2.9,2.8-5.1C93.1,38.4,91.1,36.7,87.7,35.1z"/>
	<path class="st0" d="M90.8,29.5l2-1.5c-1.4-2.2-4.1-3.9-7.1-3.9c-0.9,0-1.7,0.1-2.5,0.4v2.6c0.8-0.3,1.7-0.5,2.4-0.5
		C87.7,26.6,89.6,27.6,90.8,29.5z"/>
	<polygon class="st0" points="98.4,24.5 107.2,48 108.1,48 109.1,45.6 101.4,24.5 	"/>
	<polygon class="st0" points="114.9,24.1 108.8,39.6 110.1,43.2 115.4,29.7 122.7,48 123.8,48 124.6,45.7 115.9,24.1 	"/>
	<polygon class="st0" points="124,39.7 125.5,43.3 132.5,24.5 129.5,24.5 	"/>
	<polygon class="st0" points="140.8,40.4 144.5,31.9 143,28.5 134.9,47.6 137.8,47.6 139.7,42.9 149.2,42.9 148.1,40.4 	"/>
	<polygon class="st0" points="144.9,24.1 143.9,26.3 153,47.6 155.9,47.6 145.9,24.1 	"/>
	<rect x="157.4" y="24.5" class="st0" width="19" height="2.4"/>
	<rect x="165.5" y="28.7" class="st0" width="2.7" height="18.9"/>
	<path class="st0" d="M176.4,45.7h-0.3v0.5h0.3c0.1,0,0.3-0.1,0.3-0.2C176.6,45.8,176.5,45.7,176.4,45.7z"/>
	<path class="st0" d="M176.4,44.4c-1,0-1.8,0.8-1.8,1.8c0,1,0.8,1.8,1.8,1.8c1,0,1.8-0.8,1.8-1.8C178.2,45.2,177.4,44.4,176.4,44.4z
		 M176.8,47.2l-0.5-0.6h-0.3v0.6h-0.4v-1.9h0.8c0.4,0,0.7,0.2,0.7,0.6c0,0.2-0.1,0.4-0.3,0.5l0.5,0.7H176.8z"/>
</g>
</svg>
