<?xml version="1.0" encoding="utf-8"?>
<!-- Generator: Adobe Illustrator 20.0.0, SVG Export Plug-In . SVG Version: 6.00 Build 0)  -->
<svg version="1.1" id="Layer_1" xmlns="http://www.w3.org/2000/svg" xmlns:xlink="http://www.w3.org/1999/xlink" x="0px" y="0px"
	 viewBox="0 0 36 36" style="enable-background:new 0 0 36 36;" xml:space="preserve">
<style type="text/css">
	.st0{fill-rule:evenodd;clip-rule:evenodd;fill:#DBD9D6;}
</style>
<path class="st0" d="M27.5,3H8.5C5.5,3,3,5.5,3,8.5v19.1c0,3,2.4,5.5,5.5,5.5h19.1c3,0,5.5-2.4,5.5-5.5V8.5C33,5.5,30.5,3,27.5,3z
	 M28.9,25.4c-0.1,0.7-1.7,1.2-4.1,1c-3.2-0.3-4.5-2.7-4-4.6c0.3-1.3,3.1-6.4,3.2-7.1c0.1-0.8-0.3-0.9-0.6-0.9c-0.3,0-0.6,0.1-1,0.7
	c-0.3,0.5-3.8,7.4-4.1,8c-0.5,1-1.2,1.3-1.9,1.2c-1-0.1-1.5-0.6-1.3-1.5c0.1-0.6,2.3-5.5,2.4-6.3c0.1-0.5,0-1-0.5-1.2
	s-1,0.1-1.2,0.4c-0.2,0.4-3.4,8.6-3.7,9.2c-0.6,1-1.2,1.4-2.1,1.4c-2.2,0.1-3.8-1.7-3-3.8c0.3-1,2.4-8.3,3.4-10.2
	c0.7-1.3,2.7-2.2,4-1.6c0.7,0.3,1.7,0.8,2,0.9c0.7,0.3,1.4-0.5,1.7-0.7c0.3-0.2,0.6-0.5,0.9-0.6c0.3-0.1,0.9-0.2,1.3-0.1
	c0.4,0.1,0.7,0.2,0.8,0.3c0.3,0.2,0.5,0.4,0.8,0.7c0.4,0.4,0.7,0.2,1,0c0.4-0.2,0.7-0.4,1.8-0.4c1.2,0,2.5,0.4,2.7,2.4
	c0.3,2.2-3.3,7.8-3.3,10.4c0,0.8,3,0.7,3.7,0.9S29.1,24.4,28.9,25.4z"/>
</svg>
