<?xml version="1.0" encoding="utf-8"?>
<!-- Generator: Adobe Illustrator 20.0.0, SVG Export Plug-In . SVG Version: 6.00 Build 0)  -->
<svg version="1.1" id="Layer_1" xmlns="http://www.w3.org/2000/svg" xmlns:xlink="http://www.w3.org/1999/xlink" x="0px" y="0px"
	 viewBox="0 0 36 36" style="enable-background:new 0 0 36 36;" xml:space="preserve">
<style type="text/css">
	.st0{fill-rule:evenodd;clip-rule:evenodd;fill:#DBD9D6;}
</style>
<g>
	<path class="st0" d="M17.6,14c0,0,0.5,0.1,0.5-0.6v-2.9c0,0,0.1-0.8-0.5-0.8c0,0-0.6-0.1-0.6,0.8v2.9C17,14.1,17.6,14,17.6,14z"/>
	<path class="st0" d="M27.5,3H8.5C5.5,3,3,5.5,3,8.5v19.1c0,3,2.4,5.5,5.5,5.5h19.1c3,0,5.5-2.4,5.5-5.5V8.5C33,5.5,30.5,3,27.5,3z
		 M20.1,8.8h1.1v5c0,0-0.1,0.3,0.3,0.3c0,0,0.5-0.1,0.6-0.5V8.8h1.1v6.2h-1.1v-0.7c0,0-0.6,0.8-1.2,0.8c-0.6,0-0.9-0.3-0.9-0.9V8.8z
		 M15.9,10.5c0-0.2,0.1-0.6,0.1-0.6c0.2-0.8,0.9-1.1,1.3-1.1c0.2,0,0.4,0,0.5,0c0.4,0.1,1.1,0.3,1.3,1.1c0,0,0.1,0.4,0.1,0.6v2.9
		c0,0,0,0.5-0.3,0.9c-0.2,0.3-0.5,0.6-1.1,0.7c-0.1,0-0.4,0-0.4,0c-0.6-0.1-0.9-0.4-1.2-0.7c-0.3-0.4-0.3-0.9-0.3-0.9V10.5z
		 M12.9,6.7l0.9,3.2l0.9-3.2h1.2l-1.5,4.9v3.3h-1.2v-3.3l-1.6-4.9H12.9z M26.9,28.2c-0.1,0.2-0.6,0.8-1.1,0.9
		c-1.2,0.2-4.6,0.3-7.8,0.3c-2.3,0-5.8-0.1-7.2-0.2c-2.6-0.2-2.4-3.5-2.5-6.3c0-1.3,0.1-2.9,0.4-4.2c0.5-2.3,2-2,4.1-2.1
		c0.2,0,1.9-0.1,5.2-0.1c4.9,0.1,6.4,0,7.7,0.2c2.1,0.3,1.9,3.6,2,6.1C27.6,25.8,27.6,27.2,26.9,28.2z"/>
	<path class="st0" d="M10.1,18.5v1.2h1.3v7.1h1.2v-7.1H14c0.1,0,0-1.2,0-1.2H10.1z"/>
	<path class="st0" d="M16.4,25.3c0,0.1-0.4,0.5-0.7,0.5c-0.3,0-0.3-0.2-0.3-0.2v-5h-1.1v5.1c0,0.8,0.2,1.2,0.9,1.2
		c0.6,0,1.2-0.8,1.2-0.8v0.7h1.1v-6.2h-1.1V25.3z"/>
	<path class="st0" d="M24.9,24.7v0.5c0,0,0,0.7-0.5,0.7c-0.5,0-0.6-0.4-0.6-0.7v-1.2H26v-1.7c0,0,0.1-1.6-1.6-1.6
		c-1.4,0-1.5,0.7-1.6,1.1c0,0-0.1,0.4-0.1,0.6v2.9c0,0-0.1,1.8,1.8,1.8c0,0,1.3-0.1,1.5-1.2c0.1-0.8,0.1-1.1,0.1-1.1H24.9z
		 M23.8,22.2c0-0.1,0.1-0.6,0.6-0.6c0.5,0,0.5,0.6,0.5,0.6V23h-1.1V22.2z"/>
	<path class="st0" d="M20.7,20.5c-0.5,0-1.1,0.7-1.1,0.7v-2.7h-1.1v8.3h1.1v-0.6c0.2,0.3,0.6,0.7,1.3,0.7c0.7,0,0.8-1.2,0.8-1.2
		v-4.1C21.8,20.9,21.2,20.5,20.7,20.5z M20.6,25.3c0,0,0,0.5-0.5,0.5c0,0-0.4,0-0.5-0.2v-3.8c0,0,0.2-0.2,0.5-0.2
		c0.3,0,0.5,0.2,0.5,0.6V25.3z"/>
</g>
</svg>
