<?xml version="1.0" encoding="utf-8"?>
<!-- Generator: Adobe Illustrator 20.0.0, SVG Export Plug-In . SVG Version: 6.00 Build 0)  -->
<svg version="1.1" id="Layer_1" xmlns="http://www.w3.org/2000/svg" xmlns:xlink="http://www.w3.org/1999/xlink" x="0px" y="0px"
	 viewBox="0 0 36 36" style="enable-background:new 0 0 36 36;" xml:space="preserve">
<style type="text/css">
	.st0{fill:#DBD9D6;}
</style>
<path class="st0" d="M29.2,33H6.8C4.7,33,3,31.3,3,29.2V6.8C3,4.7,4.7,3,6.8,3h22.5C31.3,3,33,4.7,33,6.8v22.5
	C33,31.3,31.3,33,29.2,33z M14.5,25.6c7.1,0,10.9-5.9,10.9-10.9c0-0.2,0-0.3,0-0.5c0.8-0.5,1.4-1.2,1.9-2c-0.7,0.3-1.4,0.5-2.2,0.6
	c0.8-0.5,1.4-1.2,1.7-2.1c-0.7,0.4-1.6,0.8-2.4,0.9c-0.7-0.7-1.7-1.2-2.8-1.2c-2.1,0-3.8,1.7-3.8,3.8c0,0.3,0,0.6,0.1,0.9
	c-3.2-0.2-6-1.7-7.9-4c-0.3,0.6-0.5,1.2-0.5,1.9c0,1.3,0.7,2.5,1.7,3.2c-0.6,0-1.2-0.2-1.7-0.5c0,0,0,0,0,0c0,1.9,1.3,3.4,3.1,3.8
	c-0.3,0.1-0.7,0.1-1,0.1c-0.2,0-0.5,0-0.7-0.1c0.5,1.5,1.9,2.6,3.6,2.7c-1.3,1-3,1.6-4.8,1.6c-0.3,0-0.6,0-0.9-0.1
	C10.3,25,12.4,25.6,14.5,25.6"/>
</svg>
