<?xml version="1.0" encoding="utf-8"?>
<!-- Generator: Adobe Illustrator 20.0.0, SVG Export Plug-In . SVG Version: 6.00 Build 0)  -->
<svg version="1.1" id="Layer_1" xmlns="http://www.w3.org/2000/svg" xmlns:xlink="http://www.w3.org/1999/xlink" x="0px" y="0px"
	 viewBox="0 0 36 36" style="enable-background:new 0 0 36 36;" xml:space="preserve">
<style type="text/css">
	.st0{fill:#DBD9D6;}
</style>
<path class="st0" d="M33.3,8.7L18.4,0.1c-0.2-0.1-0.5-0.1-0.7,0L2.7,8.7C2.5,8.9,2.3,9.1,2.3,9.4v17.2c0,0.3,0.1,0.5,0.4,0.6
	l14.9,8.6c0.2,0.1,0.5,0.1,0.7,0l14.9-8.6c0.2-0.1,0.4-0.4,0.4-0.6V9.4C33.7,9.1,33.5,8.9,33.3,8.7z M7.8,21.2H3.9v-6.8h3.9v1.1H5.2
	v1.6h2.1v1.1H5.2v1.8h2.5V21.2z M11.4,21.2H10L8,14.4h1.5l1.1,4.9l1.1-4.9h1.5L11.4,21.2z M17.6,21.2h-3.9v-6.8h3.9v1.1H15v1.6h2.1
	v1.1H15v1.8h2.5V21.2z M23,21.2h-1.4l-2-4.5v4.5h-1.4v-6.8h1.4l2,4.5v-4.5H23V21.2z M26.4,21.2H25v-5.7h-1.7v-1.1h4.7v1.1h-1.7V21.2
	z M29.8,16.7c0.1,0.2,0.4,0.3,0.8,0.5c0.7,0.2,1.1,0.5,1.4,0.9c0.3,0.3,0.5,0.8,0.5,1.3c0,0.6-0.2,1.1-0.6,1.4
	c-0.4,0.3-0.9,0.5-1.5,0.5c-0.4,0-0.8-0.1-1.2-0.3c-0.4-0.2-0.6-0.4-0.8-0.8c-0.2-0.3-0.3-0.7-0.3-1.2h1.4c0,0.4,0.1,0.7,0.2,0.9
	c0.2,0.2,0.4,0.3,0.7,0.3c0.5,0,0.7-0.3,0.7-0.8c0-0.3-0.1-0.5-0.2-0.6c-0.1-0.1-0.4-0.3-0.8-0.4c-0.7-0.3-1.2-0.6-1.5-0.9
	c-0.3-0.3-0.4-0.8-0.4-1.2c0-0.6,0.2-1,0.6-1.4c0.4-0.3,0.9-0.5,1.5-0.5c0.4,0,0.8,0.1,1.1,0.3c0.3,0.2,0.6,0.4,0.8,0.7
	c0.2,0.3,0.3,0.7,0.3,1.1h-1.4c0-0.3-0.1-0.6-0.2-0.7c-0.1-0.2-0.3-0.2-0.6-0.2c-0.2,0-0.4,0.1-0.6,0.2c-0.1,0.1-0.2,0.3-0.2,0.6
	C29.6,16.4,29.6,16.6,29.8,16.7z"/>
</svg>
