<?xml version="1.0" encoding="utf-8"?>
<!-- Generator: Adobe Illustrator 20.0.0, SVG Export Plug-In . SVG Version: 6.00 Build 0)  -->
<svg version="1.1" id="Layer_1" xmlns="http://www.w3.org/2000/svg" xmlns:xlink="http://www.w3.org/1999/xlink" x="0px" y="0px"
	 viewBox="0 0 36 36" style="enable-background:new 0 0 36 36;" xml:space="preserve">
<style type="text/css">
	.st0{fill:#DBD9D6;}
</style>
<g>
	<path class="st0" d="M30.8,3H5.2C4,3,3,4,3,5.2v25.7C3,32,4,33,5.2,33h25.6c1.2,0,2.2-1,2.2-2.2V5.2C33,4,32,3,30.8,3z M11.9,28.6
		H7.4V14.2h4.5V28.6z M9.7,12.3c-1.4,0-2.6-1.2-2.6-2.6c0-1.4,1.2-2.6,2.6-2.6c1.4,0,2.6,1.2,2.6,2.6C12.3,11.1,11.1,12.3,9.7,12.3z
		 M28.6,28.6h-4.4v-7c0-1.7,0-3.8-2.3-3.8c-2.3,0-2.7,1.8-2.7,3.7v7.1h-4.4V14.2H19v2H19c0.6-1.1,2-2.3,4.2-2.3c4.5,0,5.3,3,5.3,6.8
		V28.6z"/>
</g>
</svg>
