<?xml version="1.0" encoding="utf-8"?>
<!-- Generator: Adobe Illustrator 20.0.0, SVG Export Plug-In . SVG Version: 6.00 Build 0)  -->
<svg version="1.1" id="Layer_1" xmlns="http://www.w3.org/2000/svg" xmlns:xlink="http://www.w3.org/1999/xlink" x="0px" y="0px"
	 viewBox="0 0 36 36" style="enable-background:new 0 0 36 36;" xml:space="preserve">
<style type="text/css">
	.st0{fill:#DBD9D6;}
</style>
<path id="White_7_" class="st0" d="M31.3,3H4.7C3.7,3,3,3.7,3,4.7v26.7C3,32.3,3.7,33,4.7,33H19V21.4h-3.9v-4.5H19v-3.3
	c0-3.9,2.4-6,5.8-6c1.7,0,3.1,0.1,3.5,0.2v4l-2.4,0c-1.9,0-2.2,0.9-2.2,2.2v2.9h4.5l-0.6,4.5h-3.9V33h7.6c0.9,0,1.7-0.7,1.7-1.7V4.7
	C33,3.7,32.3,3,31.3,3z"/>
</svg>
